<?xml version='1.0' encoding='utf-8'?>
<svg xmlns="http://www.w3.org/2000/svg" width="362.3678mm" height="370.41586mm" viewBox="0 0 362.3678 370.41586" version="1.1" id="svg5" xml:space="preserve"><defs id="defs2" /><g id="layer1"><path style="fill:#000000;stroke-width:1" d="m 247.65099999999984 370.22099999999955 c -3.617,-0.934 -5.059,-3.561 -3.719,-6.768 0.697,-1.668 0.697,-1.668 -0.833,-0.438 -0.913,0.733 -1.85,1.139 -2.903,1.258 -1.42,0.161 -1.655,0.08 -2.727,-0.998 -2.669,-2.669 -2.533,-7.144 0.32,-10.524 0.829,-0.984 0.867,-1.103 0.243,-0.769 -0.408,0.218 -0.835,0.549 -0.95,0.737 -0.444,0.718 -2.268,0.351 -3.279,-0.662 -0.88,-0.879 -1.001,-1.241 -0.994,-2.996 0,-2.334 0.716,-4.086 2.866,-7.098 3.418,-4.787 7.492,-7.609 15.304,-10.602 1.803,-0.691 4.171,-1.793 5.261,-2.449 4.185,-2.52 3.042,-0.283 -2.747,5.375 -6.994,6.835 -9.073,9.966 -8.365,12.598 0.631,2.339 2.08,2.62 5.406,1.047 2.563,-1.213 3.958,-2.141 9.877,-6.577 4.677,-3.504 6.02,-4.183 4.361,-2.201 -6.507,7.771 -8.241,10.147 -9.75,13.372 -0.788,1.685 -1.001,2.575 -0.92,3.846 0.09,1.521 0.181,1.662 1.052,1.762 3.116,0.358 10.222,-5.154 16.589,-12.866 1.593,-1.932 3.052,-3.511 3.241,-3.511 0.452,0 0.541,-0.203 -2.734,6.224 -1.566,3.076 -2.935,6.162 -3.038,6.858 -0.282,1.884 0.103,3.015 1.013,3.015 2.829,0 15.451,-8.514 22.307,-15.046 3.125,-2.977 5.954,-6.816 7.412,-10.059 0.652,-1.45 1.289,-2.637 1.415,-2.637 0.573,0 1.12,2.825 1.092,5.651 -0.03,2.838 -0.405,4.62 -1.675,7.878 -0.207,0.532 -0.03,0.457 0.83,-0.337 1.34,-1.248 3.102,-4.691 3.991,-7.798 0.364,-1.271 0.771,-2.312 0.906,-2.312 0.135,0 0.575,0.733 0.979,1.627 0.622,1.383 0.706,2.064 0.563,4.539 l -0.171,2.911 0.655,-1.274 c 1.302,-2.535 1.81,-5.637 1.807,-11.056 0,-5.457 -0.514,-8.819 -2.021,-13.272 -0.738,-2.18 -0.747,-2.312 -0.158,-2.312 2.284,0 5.815,7.675 5.815,12.634 0,1.966 0.593,2.051 0.921,0.131 0.767,-4.494 -0.07,-13.852 -1.474,-16.6 -0.649,-1.269 -0.601,-1.393 0.341,-0.886 1.003,0.541 2.331,2.108 3.46,4.083 2.458,4.3 -0.498,-5.231 -3.382,-10.903 -1.032,-2.029 -1.792,-3.767 -1.69,-3.866 0.104,-0.09 1.093,0.808 2.203,2.011 1.111,1.204 2.019,2.046 2.019,1.874 0,-0.172 -0.628,-1.542 -1.396,-3.043 -1.911,-3.739 -6.417,-9.952 -9.821,-13.54 -1.553,-1.639 -2.825,-3.076 -2.825,-3.193 0,-1.064 4.121,1.783 7.792,5.384 3.113,3.054 3.183,2.589 0.484,-3.199 -2.422,-5.192 -4.528,-8.781 -7.496,-12.769 -1.231,-1.656 -2.154,-3.094 -2.052,-3.197 0.32,-0.319 1.696,0.593 3.575,2.369 0.993,0.941 1.807,1.618 1.807,1.507 0,-0.391 -4.234,-6.941 -6.072,-9.394 -1.021,-1.363 -2.781,-3.496 -3.911,-4.743 -2.031,-2.242 -2.415,-3.135 -0.902,-2.099 0.977,0.669 4.216,3.804 7.06,6.836 1.194,1.271 2.227,2.312 2.298,2.312 0.523,0 -2.517,-6.906 -6.746,-15.327 -2.767,-5.511 -4.981,-10.018 -4.919,-10.018 0.06,0 0.764,0.544 1.56,1.209 2.54,2.123 2.382,1.583 -2.296,-7.803 -1.762,-3.531 -3.059,-6.422 -2.884,-6.422 0.175,0 1.254,1.038 2.4,2.308 1.145,1.269 2.083,2.202 2.083,2.074 0,-0.539 -2.439,-5.502 -4.385,-8.919 -2.083,-3.663 -2.175,-4.674 -0.239,-2.655 0.541,0.566 1.101,1.028 1.244,1.028 0.466,0 -0.772,-3.52 -2.347,-6.674 -1.472,-2.947 -4.572,-8.144 -4.751,-7.965 -0.05,0.05 0.153,2.208 0.445,4.804 0.503,4.469 0.497,4.753 -0.08,5.392 -0.336,0.372 -0.818,0.675 -1.071,0.675 -0.591,0 -0.58,0.146 0.104,1.472 0.774,1.497 4.605,10.915 4.682,11.507 0.04,0.272 -0.277,0.507 -0.723,0.543 -2.086,0.175 -2.183,2.85 -0.253,6.964 l 1.312,2.797 -1.707,1.806 c -0.939,0.993 -1.811,2.218 -1.937,2.72 -0.249,0.997 0.205,2.512 1.026,3.419 0.627,0.693 0.343,1.849 -0.576,2.341 -0.355,0.191 -1.578,0.443 -2.717,0.562 -1.735,0.181 -2.07,0.322 -2.07,0.871 0,1.359 2.721,4.647 6.314,7.629 1.99,1.651 3.618,3.13 3.618,3.284 0,0.801 -0.823,0.554 -2.132,-0.64 -2.373,-2.163 -5.768,-4.518 -6.514,-4.518 -0.38,0 -2.091,0.481 -3.803,1.068 -3.289,1.129 -3.191,1.125 -9.557,0.431 -1.945,-0.211 -1.969,-0.203 -1.969,0.672 0,0.611 0.638,1.569 2.055,3.084 3.124,3.339 2.755,3.46 -2.169,0.709 -1.967,-1.099 -4.451,-2.175 -5.836,-2.525 l -2.409,-0.613 -0.4,-2.372 c -0.974,-5.78 -1.993,-8.022 -5.283,-11.633 -1.31,-1.436 -2.313,-2.722 -2.231,-2.856 0.08,-0.134 1.331,-0.03 2.773,0.244 3.19,0.594 3.783,0.253 1.956,-1.129 -0.714,-0.541 -2.384,-1.991 -3.71,-3.22 -1.325,-1.231 -3.675,-3.22 -5.223,-4.42 -3.902,-3.026 -3.821,-3.445 0.347,-1.801 5.135,2.027 9.237,2.53 9.75,1.196 0.269,-0.702 -0.425,-1.365 -2.544,-2.428 -1.041,-0.523 -2.528,-1.522 -3.303,-2.221 l -1.411,-1.27 4.451,-0.01 c 2.45,-0.01 4.659,-0.15 4.912,-0.309 0.347,-0.22 0,-0.799 -1.406,-2.381 -1.062,-1.189 -3.177,-4.415 -4.911,-7.491 -3.226,-5.723 -9.117,-14.772 -12.215,-18.768 -2.16,-2.787 -2.087,-2.772 -7.033,-1.486 l -3.187,0.828 -1.698,2.268 c -6.528,8.717 -19.136,14.668 -34.642,16.352 -4.28,0.465 -15.098,0.465 -19.378,0 -6.826,-0.742 -15.332,-3.129 -21.804,-6.119 -4.787,-2.212 -8.589,-4.906 -12.518,-8.871 l -3.596,-3.63 -3.082,-0.822 c -5.029,-1.34 -4.302,-1.602 -8.633,3.119 -6.726,7.331 -11.047,12.931 -15.299,19.824 -0.892,1.446 -2.251,3.344 -3.023,4.22 -1.248,1.419 -1.345,1.648 -0.884,2.109 0.969,0.97 3.116,0.959 6.286,-0.03 1.626,-0.507 3.038,-0.841 3.138,-0.742 0.103,0.104 -0.712,1.037 -1.802,2.085 -1.829,1.757 -7.354,4.972 -8.546,4.972 -0.24,0 -0.614,0.212 -0.83,0.473 -0.304,0.367 -0.268,0.522 0.159,0.685 1.182,0.455 4.22,0.576 7.001,0.281 1.601,-0.168 3.099,-0.239 3.329,-0.155 0.229,0.08 -0.506,0.767 -1.636,1.522 -4.088,2.73 -5.538,5.949 -7.837,17.405 -0.573,2.852 -1.112,5.3 -1.199,5.44 -0.189,0.307 -2.323,0.982 -8.191,2.594 -4.743,1.302 -5.359,1.401 -5.359,0.853 0,-0.65 1.285,-2.887 2.058,-3.583 1.041,-0.937 1.485,-2.185 0.99,-2.782 -0.642,-0.774 -2.36,-0.532 -5.446,0.765 -6.66,2.799 -9.968,3.786 -9.915,2.959 0,-0.141 0.867,-0.951 1.907,-1.798 2.996,-2.445 6.362,-6.082 6.235,-6.74 -0.166,-0.861 -1.864,-1.726 -4.859,-2.475 -4.191,-1.047 -4.383,-1.487 -2.382,-5.437 1.096,-2.162 1.198,-2.558 0.773,-2.976 -0.421,-0.414 -0.813,-0.417 -2.715,-0.01 -1.223,0.257 -2.292,0.398 -2.378,0.312 -0.3,-0.299 1.634,-3.794 3.366,-6.083 2.253,-2.977 2.303,-3.91 0.308,-5.941 l -1.441,-1.468 1.526,-3.115 1.526,-3.114 -0.103,-3.994 c -0.07,-2.528 -0.302,-4.52 -0.64,-5.43 -0.292,-0.791 -0.468,-1.984 -0.391,-2.653 0.08,-0.67 0.05,-1.207 -0.05,-1.193 -0.709,0.09 -6.865,7.921 -6.865,8.73 0,0.104 0.67,-0.353 1.489,-1.026 0.821,-0.672 1.591,-1.221 1.713,-1.221 0.788,0 -0.445,2.782 -3.182,7.174 -1.812,2.907 -5.158,9.037 -5.158,9.447 0,0.148 0.937,-0.694 2.084,-1.868 1.145,-1.175 2.164,-2.057 2.264,-1.957 0.18,0.18 -3.373,6.791 -5.78,10.75 -0.716,1.177 -1.213,2.14 -1.104,2.14 0.103,0 1.096,-0.707 2.197,-1.57 3.28,-2.579 3.413,-1.902 0.506,2.566 -2.504,3.844 -12.478,22.526 -12.493,23.399 0,0.137 1.653,-0.956 3.677,-2.428 6.721,-4.882 12.992,-8.513 14.023,-8.117 0.42,0.16 -0.235,0.675 -2.407,1.894 -5.473,3.067 -8.927,5.59 -12.414,9.069 -4.889,4.877 -7.57,8.731 -3.996,5.745 1.799,-1.505 6.631,-4.527 7.236,-4.527 0.673,0 0.432,0.375 -1.724,2.679 -4.822,5.156 -9.423,12.177 -12.717,19.411 -2.337,5.131 -2.725,6.329 -1.441,4.453 2.613,-3.82 7.948,-8.881 8.954,-8.496 0.343,0.132 0.184,0.504 -0.6,1.394 -2.629,2.996 -6.625,10.326 -8.458,15.52 -1.071,3.037 -2.81,10.238 -2.81,11.641 0,0.501 0.491,-0.212 1.322,-1.925 2.229,-4.59 5.394,-8.385 7.733,-9.271 0.557,-0.212 0.485,0.04 -0.448,1.608 -1.561,2.615 -2.981,5.758 -3.817,8.455 -1.644,5.306 -2.472,13.449 -1.763,17.379 0.234,1.301 0.269,1.223 0.693,-1.542 0.512,-3.326 1.875,-7.099 3.453,-9.558 1.028,-1.602 2.624,-3.022 2.987,-2.659 0.09,0.09 -0.291,1.607 -0.851,3.367 -1.29,4.045 -2.034,8.528 -2.323,13.999 -0.193,3.622 -0.13,4.611 0.396,6.335 l 0.624,2.044 0.257,-2.568 c 0.139,-1.413 0.392,-2.937 0.559,-3.386 0.265,-0.711 0.379,-0.515 0.879,1.511 0.584,2.367 1.809,5.295 2.703,6.455 0.439,0.571 0.477,0.324 0.35,-2.225 -0.198,-3.97 1.107,-9.872 2.132,-9.649 0.177,0.04 0.57,1.133 0.876,2.431 0.752,3.199 3.211,7.917 5.278,10.124 1.367,1.46 1.385,0.915 0.04,-1.314 -1.679,-2.787 -2.467,-6.492 -1.961,-9.213 0.21,-1.131 0.597,-2.27 0.86,-2.533 0.407,-0.409 0.685,-0.09 1.91,2.179 2.69,4.987 5.722,8.178 12.91,13.585 7.445,5.603 15.477,10.322 17.221,10.12 1.958,-0.228 1.194,-2.811 -3.075,-10.409 -1.491,-2.652 -2.712,-4.925 -2.712,-5.051 0,-0.578 1.01,-0.136 1.542,0.679 1.17,1.785 8.958,9.486 11.645,11.514 2.752,2.079 6.343,4.018 7.437,4.019 0.903,0 1.402,-1.279 1.166,-2.995 -0.441,-3.218 -3.237,-7.714 -8.894,-14.296 -1.455,-1.693 -2.496,-3.129 -2.313,-3.19 0.182,-0.06 2.23,1.337 4.55,3.107 7.114,5.426 11.621,8.125 13.568,8.127 1.256,0 2.779,-0.965 3.016,-1.908 0.706,-2.808 -1.181,-5.682 -8.305,-12.649 -5.003,-4.893 -6.4,-6.678 -5.227,-6.678 0.207,0 0.784,0.289 1.284,0.642 1.586,1.119 4.898,2.624 8.76,3.982 7.424,2.61 13.237,7.845 15.337,13.809 1.583,4.499 -0.813,8.157 -4.081,6.229 l -1.207,-0.713 0.949,1.126 c 1.374,1.631 1.873,3.059 1.873,5.374 0,2.498 -0.404,3.636 -1.801,5.086 -0.903,0.936 -1.322,1.112 -2.633,1.11 -1.482,0 -2.188,-0.309 -4.386,-1.915 l -0.77,-0.564 0.514,1.23 c 0.8,1.913 0.676,4.404 -0.261,5.286 -1.332,1.25 -3.134,1.787 -5.998,1.787 -3.453,0 -5.747,-1.039 -7.313,-3.318 l -1.058,-1.536 -0.647,1.064 c -0.953,1.568 -1.956,1.912 -4.233,1.454 -6.661,-1.338 -15.2,-6.712 -21.831,-13.741 l -3.25,-3.445 h -24.026 c -16.208,0 -24.028,-0.116 -24.028,-0.352 0,-0.876 2.127,-11.066 2.573,-12.335 l 0.501,-1.419 -1.033,1.106 c -0.569,0.61 -1.088,1.047 -1.156,0.975 -0.467,-0.509 1.775,-11.001 3.374,-15.786 l 1.109,-3.323 -0.939,0.669 c -0.516,0.367 -1.009,0.668 -1.096,0.668 -0.497,0 3.258,-13.65 4.281,-15.561 0.281,-0.526 0.103,-0.46 -0.786,0.285 -0.708,0.597 -1.202,0.815 -1.284,0.569 -0.348,-1.044 5.384,-16.428 8.233,-22.095 1.439,-2.862 1.397,-2.884 -1.191,-0.624 -1.099,0.958 -1.969,1.406 -1.969,1.012 0,-0.06 0.247,-0.946 0.549,-1.969 0.632,-2.141 2.544,-6.065 7.973,-16.364 2.12,-4.021 3.801,-7.366 3.735,-7.432 -0.07,-0.07 -0.885,0.486 -1.821,1.225 -0.937,0.739 -1.749,1.207 -1.806,1.04 -0.158,-0.459 3.213,-7.001 7.067,-13.717 1.89,-3.293 3.372,-6.053 3.293,-6.132 -0.08,-0.08 -1.007,0.432 -2.063,1.134 -1.057,0.702 -1.993,1.204 -2.081,1.116 -0.246,-0.246 4.147,-8.469 7.169,-13.42 1.495,-2.448 2.797,-4.584 2.896,-4.745 0.09,-0.162 -0.137,-0.195 -0.522,-0.08 -0.384,0.116 -0.78,0.09 -0.879,-0.06 -0.103,-0.159 1.52,-3.441 3.596,-7.292 3.776,-7 5.547,-10.597 5.218,-10.597 -0.517,0 -7.011,5.19 -10.576,8.455 -5.88,5.384 -10.588,10.698 -15.039,16.978 -1.302,1.838 -2.437,3.271 -2.523,3.185 -0.299,-0.299 2.411,-4.732 4.967,-8.127 4.658,-6.182 13.786,-15.086 20.075,-19.576 1.538,-1.099 3.164,-2.332 3.614,-2.741 0.835,-0.757 2.953,-4.963 2.651,-5.264 -0.09,-0.09 -2.033,1.33 -4.318,3.16 -2.284,1.827 -4.26,3.214 -4.392,3.078 -0.289,-0.297 2.502,-2.83 6.33,-5.746 3.115,-2.374 3.834,-3.486 4.198,-6.496 0.262,-2.176 0.18,-2.219 -0.694,-0.348 -0.748,1.602 -0.816,0.738 -0.144,-1.842 0.281,-1.079 0.435,-2.037 0.342,-2.13 -0.09,-0.09 -0.554,0.04 -1.024,0.289 -1.062,0.568 -1.144,0.484 -1.38,-1.392 -0.104,-0.832 -0.325,-1.647 -0.488,-1.812 -0.427,-0.427 -1.043,0.05 -1.043,0.807 0,0.354 -0.154,0.74 -0.343,0.857 -0.195,0.116 -0.342,-0.169 -0.342,-0.666 0,-0.481 -0.08,-0.876 -0.179,-0.876 -0.103,0 -3.141,1.448 -6.763,3.218 -22.072,10.785 -41.711,26.421 -51.77,41.22 -1.85,2.722 -2.381,3.039 -1.201,0.718 4.572,-8.987 16.922,-20.869 32.513,-31.277 7.42,-4.953 12.781,-8.059 20.464,-11.856 3.102,-1.533 5.565,-2.956 5.565,-3.214 0,-0.256 0.151,-0.517 0.337,-0.579 0.185,-0.06 -0.04,-0.885 -0.503,-1.826 l -0.84,-1.713 v 1.265 c -0.03,2.714 -1.008,1.527 -1.048,-1.265 -0.03,-1.547 -0.94,-4.022 -0.989,-2.67 -0.01,0.415 -0.21,1.15 -0.43,1.636 -0.573,1.258 -0.957,0.462 -0.963,-1.999 0,-1.688 -0.09,-1.974 -0.548,-1.799 -0.297,0.116 -0.606,0.208 -0.684,0.208 -0.08,0 -0.144,0.549 -0.144,1.22 0,1.425 -0.53,1.292 -0.861,-0.216 -0.277,-1.263 -0.03,-1.296 -7.878,1.071 -15.255,4.602 -27.807,10.016 -39.21,16.91 -4.137,2.5 -5.057,2.951 -4.636,2.272 0.355,-0.576 4.73,-3.499 8.403,-5.616 10.075,-5.804 21.859,-10.526 39.73,-15.919 l 3.253,-0.982 0.104,-1.352 c 0.05,-0.743 -0.04,-1.719 -0.201,-2.169 -0.276,-0.745 -0.34,-0.668 -0.724,0.853 -0.51,2.024 -1.047,1.539 -1.056,-0.952 0,-0.894 -0.103,-1.627 -0.23,-1.627 -0.13,0 -2.987,0.854 -6.361,1.899 -6.266,1.939 -12.107,4.025 -17.336,6.189 -3.145,1.302 -14.318,6.801 -15.051,7.408 -0.316,0.262 -0.551,0.259 -0.816,-0.01 -0.464,-0.463 0.522,-1.099 5.882,-3.787 9.105,-4.569 17.599,-7.893 28.948,-11.328 4.459,-1.35 4.595,-1.466 4.283,-3.627 l -0.247,-1.713 -0.617,1.456 c -0.811,1.91 -1.264,1.845 -1.195,-0.172 0.09,-2.558 0.04,-2.821 -0.488,-2.619 -0.387,0.149 -0.429,-0.04 -0.211,-0.952 0.149,-0.626 0.444,-1.572 0.653,-2.103 0.211,-0.529 0.38,-1.377 0.376,-1.883 0,-0.888 -0.04,-0.876 -0.752,0.365 -0.409,0.707 -0.883,1.284 -1.051,1.284 -0.17,0 -0.255,-0.841 -0.191,-1.869 0.104,-1.72 0.06,-1.856 -0.567,-1.714 -0.376,0.09 -2.534,0.545 -4.794,1.021 -14.526,3.066 -27.447,7.424 -40.213,13.564 -3.091,1.486 -5.688,2.635 -5.771,2.553 -0.378,-0.378 0.574,-1.033 3.969,-2.733 12.685,-6.352 27.276,-11.358 41.501,-14.239 1.978,-0.4 3.943,-0.8 4.366,-0.888 0.632,-0.131 0.773,-0.391 0.779,-1.438 0,-0.703 0.144,-1.862 0.31,-2.576 0.238,-1.024 0.211,-1.225 -0.13,-0.945 -0.756,0.627 -0.897,-0.05 -0.661,-3.171 l 0.231,-3.058 -3.22,0.229 c -20.156,1.43 -36.041,3.693 -47.191,6.723 -1.391,0.378 -2.596,0.62 -2.676,0.54 -0.25,-0.251 4.985,-1.863 9.486,-2.923 9.446,-2.223 22.553,-3.966 38.638,-5.139 2.32,-0.168 4.271,-0.361 4.337,-0.427 0.06,-0.06 0.294,-2.199 0.51,-4.741 0.61,-7.212 2.212,-14.168 5.479,-23.785 0.573,-1.685 1.04,-3.102 1.04,-3.152 0,-0.05 -0.733,-0.582 -1.627,-1.181 -2.276,-1.526 -6.407,-5.605 -7.946,-7.847 -1.475,-2.15 -3.153,-5.393 -3.764,-7.279 -0.408,-1.261 -0.448,-1.284 -2.188,-1.303 -2.348,-0.03 -3.947,-0.623 -4.822,-1.804 -0.675,-0.91 -0.723,-1.47 -0.832,-9.689 -0.08,-6.173 0,-8.86 0.273,-9.193 0.215,-0.258 1.191,-0.651 2.171,-0.874 4.55,-1.035 4.368,-0.944 3.935,-1.978 -0.224,-0.536 -0.393,-2.896 -0.398,-5.554 0,-5.62 0.521,-8.038 2.831,-12.844 3.026,-6.302 7.409,-10.852 13.223,-13.731 4.67,-2.312 9.594,-3.071 14.218,-2.195 l 1.811,0.344 4.659,-4.543 c 5.831,-5.69 8.923,-8.168 16.473,-13.21 10.149,-6.78 19.177,-10.984 30.996,-14.439 11.947,-3.492 22.024,-5.077 34.272,-5.389 8.297,-0.211 10.933,0.149 15.965,2.179 l 2.971,1.198 3.193,-1.188 c 5.13,-1.908 6.554,-2.115 14.325,-2.085 7.564,0.03 14.583,0.77 22.427,2.365 21.637,4.401 39.961,14.016 56.8,29.801 l 5.76,5.402 2.354,-0.39 c 4.909,-0.81 9.119,-0.154 13.869,2.163 8.244,4.024 14.45,12.513 15.91,21.766 0.448,2.838 0.453,6.59 0,8.913 -0.189,0.998 -0.289,1.871 -0.22,1.939 0.06,0.06 1.834,0.475 3.927,0.908 5.688,1.171 5.31,0.382 5.134,10.721 -0.129,7.496 -0.225,8.727 -0.752,9.532 -0.821,1.252 -2.515,1.894 -4.994,1.894 -1.54,0 -2.066,0.116 -2.066,0.479 0,0.264 -0.685,1.843 -1.524,3.511 -1.874,3.731 -5.183,7.898 -8.253,10.395 -1.275,1.036 -2.709,2.211 -3.188,2.61 l -0.873,0.728 2.159,6.911 c 2.585,8.27 3.643,13.251 4.141,19.489 0.205,2.558 0.404,4.677 0.444,4.71 0.04,0.02 3.926,0.396 8.636,0.807 19.505,1.708 33.844,4.119 41.784,7.031 2.656,0.974 2.703,0.982 -4.281,-0.672 -5.39,-1.277 -14.538,-2.904 -21.064,-3.746 -5.931,-0.765 -21.559,-2.249 -23.695,-2.249 h -1.821 l -0.01,2.141 c 0,1.178 -0.214,3.72 -0.454,5.652 -0.243,1.93 -0.393,3.51 -0.334,3.51 0.05,0 2.793,0.535 6.081,1.187 12.089,2.403 21.94,5.265 32.398,9.414 4.756,1.888 13.356,6.086 13.356,6.521 0,0.574 -0.403,0.429 -5.171,-1.844 -9.525,-4.543 -20.415,-8.413 -30.833,-10.958 -5.12,-1.25 -12.265,-2.734 -15.166,-3.147 l -1.68,-0.239 0.233,2.787 c 0.238,2.853 0.06,3.267 -0.958,2.248 -0.664,-0.664 -0.667,-0.424 -0.03,1.706 0.281,0.925 0.501,2.235 0.488,2.912 l -0.03,1.229 -0.731,-1.456 c -0.402,-0.8 -0.862,-1.455 -1.023,-1.455 -0.16,0 -0.245,0.963 -0.189,2.14 l 0.104,2.14 3.082,0.967 c 16.341,5.13 21.482,7.082 29.968,11.381 5.375,2.722 6.465,3.394 6.097,3.761 -0.131,0.131 -3.367,-1.306 -7.192,-3.193 -8.925,-4.403 -17.254,-7.595 -26.99,-10.343 -2.165,-0.612 -4.507,-1.401 -5.204,-1.754 l -1.264,-0.641 0.06,1.93 c 0.08,2.263 -0.454,2.723 -1.096,0.947 -0.527,-1.458 -0.941,-1.204 -1.256,0.766 -0.283,1.772 -0.363,1.724 5.673,3.327 13.628,3.619 27.779,9.471 38.984,16.122 3.676,2.183 7.442,4.912 7.162,5.191 -0.08,0.08 -2.288,-1.178 -4.908,-2.796 -5.784,-3.573 -16.747,-9.022 -23.257,-11.562 -8.275,-3.227 -19.792,-6.786 -22.309,-6.892 -0.793,-0.04 -1.682,-0.26 -1.976,-0.505 -0.455,-0.376 -0.582,-0.321 -0.84,0.364 -0.169,0.445 -0.422,1.502 -0.565,2.349 -0.241,1.432 -0.282,1.481 -0.578,0.685 -0.175,-0.47 -0.328,-1.431 -0.338,-2.136 0,-0.703 -0.154,-1.194 -0.32,-1.092 -0.167,0.103 -0.303,0.569 -0.303,1.038 0,1.56 -1.103,5.362 -1.413,4.872 -0.158,-0.251 -0.29,-0.888 -0.294,-1.417 0,-1.54 -0.563,-0.768 -0.992,1.381 -0.461,2.311 -0.932,3.283 -1.201,2.483 -0.09,-0.278 -0.218,-0.773 -0.275,-1.099 -0.09,-0.474 -0.189,-0.419 -0.508,0.27 -0.398,0.854 -0.355,0.887 3.254,2.606 17.941,8.544 23.965,12.048 34.993,20.353 10.748,8.093 19.468,17.441 22.916,24.564 1.225,2.531 0.67,2.225 -1.135,-0.622 -6.119,-9.66 -16.025,-19.142 -29.47,-28.211 -6.956,-4.691 -10.578,-6.809 -17.876,-10.448 -5.068,-2.528 -12.629,-6.034 -13.009,-6.034 -0.06,0 -0.129,0.385 -0.129,0.857 0,0.528 -0.194,0.855 -0.506,0.855 -0.28,0 -0.605,-0.384 -0.722,-0.855 -0.358,-1.423 -0.693,-0.98 -1.169,1.54 -0.45,2.382 -0.927,3.026 -1.27,1.713 -0.104,-0.377 -0.376,-0.685 -0.614,-0.685 -0.604,0 -0.84,1.147 -0.66,3.21 0.151,1.745 0.149,1.749 -0.348,0.729 l -0.502,-1.028 -0.01,1.372 c -0.03,2.585 0.495,3.525 3.567,6.399 2.558,2.395 3.504,3.703 2.677,3.703 -0.136,0 -1.226,-0.963 -2.421,-2.141 l -2.173,-2.141 0.708,1.885 c 0.39,1.035 0.71,1.899 0.71,1.918 0,0.03 1.039,0.729 2.311,1.577 5.187,3.459 16.596,13.517 21.372,18.845 2.842,3.169 6.501,7.941 7.354,9.593 0.983,1.899 0.278,1.652 -1.178,-0.414 -4.145,-5.877 -10.222,-12.312 -18.456,-19.541 -4.292,-3.766 -9.541,-7.868 -10.069,-7.868 -0.151,0 1.639,3.891 3.977,8.647 2.339,4.757 4.352,9.074 4.475,9.594 0.191,0.817 0.136,0.916 -0.416,0.72 -0.351,-0.129 -0.984,-0.538 -1.408,-0.92 -0.423,-0.382 -0.77,-0.597 -0.77,-0.479 0,0.245 2.577,4.703 4.785,8.279 2.096,3.393 4.203,7.867 3.774,8.009 -0.198,0.07 -0.742,-0.129 -1.207,-0.426 -0.465,-0.3 -1.248,-0.805 -1.738,-1.123 -0.736,-0.474 -0.04,1.123 3.921,8.991 4.471,8.887 6.521,13.661 6.064,14.118 -0.327,0.328 -1.958,-0.728 -3.497,-2.266 -0.817,-0.815 -1.485,-1.424 -1.485,-1.352 0,0.06 1.328,2.51 2.951,5.421 4.988,8.946 8.533,16.099 9.666,19.506 0.596,1.791 1.082,3.37 1.082,3.511 0,0.589 -0.739,0.155 -2.541,-1.491 -1.051,-0.961 -1.91,-1.661 -1.91,-1.556 0,0.103 0.634,1.622 1.408,3.373 3.42,7.728 7.153,17.982 7.153,19.644 0,0.498 -0.3,0.345 -1.42,-0.721 -0.78,-0.746 -1.331,-1.098 -1.221,-0.785 2.264,6.462 4.705,15.804 4.249,16.261 -0.132,0.132 -0.65,-0.133 -1.15,-0.59 -0.613,-0.558 -0.845,-0.647 -0.712,-0.273 1.154,3.226 3.849,14.041 4.2,16.845 0.277,2.212 -0.05,2.476 -1.23,1.008 l -0.76,-0.941 0.231,0.856 c 0.568,2.116 1.893,8.941 2.113,10.879 l 0.241,2.135 h -21.117 -21.116 l -4.365,4.368 c -4.998,5.001 -9.041,8.006 -13.94,10.366 -6.504,3.131 -9.179,3.416 -10.535,1.12 l -0.727,-1.232 -0.534,0.815 c -1.178,1.799 -2.498,3.016 -3.864,3.562 -1.66,0.666 -5.425,0.967 -6.994,0.561 z m 13.064,-145.29 c 1.616,-0.44 2.911,-1.533 2.911,-2.454 0,-0.361 -0.308,-1.049 -0.686,-1.528 -0.977,-1.244 -0.923,-3.502 0.117,-4.62 0.437,-0.472 1.21,-1.13 1.717,-1.462 l 0.921,-0.604 -1.174,-0.899 c -0.646,-0.495 -3.845,-3.656 -7.108,-7.027 -3.264,-3.369 -7.491,-7.482 -9.394,-9.139 l -3.462,-3.012 -3.242,1.626 -3.244,1.627 2.009,2.546 c 3.051,3.867 8.722,12.54 12.079,18.474 1.651,2.919 3.317,5.655 3.702,6.079 0.791,0.873 2.567,1.018 4.859,0.393 z m -151.363,-6.387 c 4.303,-6.625 11.06,-14.972 15.997,-19.76 1.087,-1.054 1.287,-1.412 0.907,-1.632 -0.266,-0.154 -1.747,-1.029 -3.29,-1.943 l -2.807,-1.664 -5.585,5.053 c -6.236,5.64 -17.744,17.158 -17.744,17.759 0,0.247 0.742,0.389 2.026,0.389 2.566,0 3.111,0.216 3.111,1.233 0,0.871 -1.788,2.399 -3.766,3.219 -0.58,0.241 -0.999,0.608 -0.93,0.818 0.204,0.63 2.973,1.181 6.089,1.21 l 2.933,0.03 z m 85.432,-4.031 c 8.886,-1.448 16.852,-4.388 22.845,-8.431 2.544,-1.716 6.57,-5.258 6.267,-5.513 -0.09,-0.08 -1.789,-0.03 -3.767,0.13 -6.641,0.497 -13.738,-0.369 -22.431,-2.737 -3.795,-1.033 -4.664,-1.082 -3.45,-0.194 0.646,0.472 0.642,0.504 -0.172,1.376 -0.738,0.792 -1.019,0.871 -2.472,0.702 -1.17,-0.136 -1.623,-0.08 -1.585,0.222 0.185,1.467 -0.857,1.816 -2.664,0.895 -0.703,-0.359 -1.313,-0.653 -1.354,-0.653 -0.04,0 -0.13,0.425 -0.184,0.943 -0.146,1.262 -1.26,1.398 -2.552,0.31 -0.985,-0.829 -1.004,-0.831 -1.798,-0.189 -1.15,0.932 -2.374,0.85 -2.633,-0.177 -0.199,-0.797 -0.248,-0.809 -1.364,-0.343 -0.637,0.267 -1.384,0.484 -1.659,0.484 -0.688,0 -1.652,-1.021 -1.453,-1.54 0.117,-0.31 -0.224,-0.382 -1.264,-0.271 -1.853,0.198 -3.004,-0.551 -2.39,-1.556 0.224,-0.367 0.33,-0.747 0.234,-0.843 -0.09,-0.09 -1.389,0.201 -2.875,0.657 -6.673,2.049 -12.612,2.863 -21.048,2.884 l -6.174,0.01 1.711,1.565 c 3.904,3.565 11.027,7.483 17.589,9.675 3.939,1.315 10.753,2.719 15.11,3.116 4.536,0.411 15.625,0.116 19.533,-0.522 z m -95.88,-2.105 c 1.774,-2.186 12.352,-12.42 17.838,-17.259 l 2.616,-2.307 -1.771,-1.747 c -0.973,-0.962 -1.97,-1.749 -2.213,-1.749 -1.217,0 -16.192,11.463 -20.951,16.037 l -2.402,2.308 1.84,1.898 c 1.051,1.086 2.101,2.585 2.45,3.5 0.337,0.881 0.641,1.602 0.677,1.602 0.04,0 0.897,-1.027 1.916,-2.283 z m 167.604,-1.228 c 0.549,-0.989 1.452,-2.469 2.009,-3.288 l 1.012,-1.491 -2.01,-2.053 c -2.636,-2.693 -9.666,-8.59 -14.105,-11.83 -3.987,-2.91 -3.758,-2.896 -6.537,-0.4 l -1.509,1.354 1.509,1.233 c 0.829,0.679 5.284,5.055 9.899,9.726 4.615,4.67 8.468,8.504 8.563,8.52 0.09,0.01 0.62,-0.782 1.169,-1.771 z m -161.495,-15.957 c 2.94,-2.207 6.3,-4.679 7.468,-5.495 l 2.12,-1.482 -0.878,-1.327 -0.879,-1.328 -2.27,1.253 c -9.606,5.297 -14.155,8.013 -18.98,11.332 l -3.693,2.541 1.305,1.421 c 0.717,0.782 1.659,1.999 2.093,2.704 l 0.79,1.282 3.789,-3.444 c 2.085,-1.893 6.195,-5.25 9.135,-7.457 z m 165.807,8.251 c 0.394,-0.894 1.183,-2.106 1.75,-2.693 l 1.03,-1.065 -1.648,-1.456 c -4.116,-3.64 -17.519,-12.681 -18.799,-12.681 -0.409,0 -3.103,3.362 -2.84,3.544 0.06,0.05 0.589,0.373 1.154,0.72 3.103,1.912 10.271,7.726 15.326,12.432 1.668,1.555 3.096,2.826 3.171,2.826 0.08,0 0.461,-0.733 0.856,-1.627 z m -180.252,-5.864 c 4.02,-2.825 12.113,-7.703 17.65,-10.639 2.213,-1.174 4.024,-2.286 4.024,-2.473 0,-0.622 -1.772,-3.372 -2.173,-3.37 -0.558,0 -12.565,6.089 -16.946,8.591 -5.108,2.918 -9.309,5.564 -9.309,5.865 0,0.225 3.143,4.355 3.329,4.373 0.04,0 1.581,-1.052 3.425,-2.347 z m 185.66,-1.138 2.05,-2.121 -1.466,-0.93 c -3.146,-1.995 -12.891,-7.518 -17.107,-9.694 l -4.433,-2.29 -0.787,1.3 c -0.434,0.715 -0.789,1.381 -0.79,1.479 0,0.104 1.116,0.856 2.482,1.684 4.846,2.939 10.75,7.023 14.226,9.84 1.938,1.568 3.58,2.854 3.649,2.854 0.07,0 1.048,-0.955 2.176,-2.122 z m -117.577,-0.07 c 9.136,-1.61 16.326,-4.71 19.33,-8.335 0.589,-0.712 1.484,-2.142 1.987,-3.178 0.797,-1.636 0.935,-2.409 1.052,-5.871 0.164,-4.858 -0.395,-7.198 -2.197,-9.192 -1.293,-1.432 -2.448,-1.952 -6.927,-3.12 -2.718,-0.708 -5.075,-2.074 -4.682,-2.711 0.09,-0.154 0.781,-0.383 1.522,-0.508 0.742,-0.13 1.512,-0.425 1.713,-0.667 0.287,-0.347 -0.207,-0.476 -2.392,-0.627 -6.989,-0.478 -12.951,-6.041 -13.57,-12.661 -0.288,-3.079 0.436,-4.949 2.93,-7.567 4.702,-4.933 10.334,-6.321 18.769,-4.623 4.752,0.957 8.572,0.958 13.013,0 8.123,-1.743 13.92,-0.292 18.962,4.75 2.916,2.916 3.617,5.588 2.545,9.704 -1.577,6.051 -8.042,10.452 -15.39,10.478 -1.923,0.01 -1.807,0.404 0.332,1.144 0.75,0.259 1.409,0.708 1.466,0.998 0.155,0.795 -1.814,1.832 -5.04,2.652 -6.618,1.687 -7.999,3.633 -8.027,11.309 -0.03,5.615 0.632,7.443 3.754,10.515 2.658,2.613 6.159,4.386 11.959,6.052 9.14,2.626 21.546,2.987 29.708,0.864 l 1.29,-0.336 -0.991,-1.441 c -1.297,-1.882 -5.994,-6.369 -9.552,-9.125 -2.799,-2.165 -3.298,-2.761 -2.321,-2.761 1.065,0 10.041,7.709 12.51,10.744 1.113,1.37 1.778,1.897 2.397,1.904 1.082,0.01 6.239,-2.082 6.413,-2.604 0.167,-0.501 -4.452,-4.386 -9.495,-7.987 -3.926,-2.802 -4.598,-3.428 -3.685,-3.428 0.943,0 11.148,7.534 13.43,9.917 0.55,0.574 1.15,1.044 1.334,1.044 0.605,0 5.385,-3.793 5.186,-4.116 -0.233,-0.378 -8.028,-5.224 -11.042,-6.864 -2.145,-1.169 -2.633,-1.693 -1.574,-1.693 0.683,0 3.537,1.576 9.038,4.99 2.256,1.399 4.245,2.545 4.418,2.545 0.377,0 2.76,-2.845 2.76,-3.295 0,-0.385 -2.92,-2.125 -5.566,-3.316 -1.841,-0.828 -2.57,-1.609 -1.502,-1.609 0.256,0 2.128,0.852 4.158,1.892 2.03,1.041 3.736,1.849 3.79,1.793 0.401,-0.4 2.202,-4.681 2.202,-5.235 0,-0.601 -0.704,-0.89 -5.394,-2.203 -5.269,-1.475 -7.426,-2.413 -5.553,-2.411 0.463,0 3.156,0.673 5.981,1.493 2.825,0.822 5.248,1.397 5.384,1.278 0.291,-0.256 1.033,-5.202 0.813,-5.422 -0.08,-0.08 -2.435,-0.596 -5.228,-1.142 -7.2,-1.405 -7.488,-1.477 -7.376,-1.859 0.134,-0.453 1.318,-0.315 7.413,0.874 2.813,0.547 5.16,0.951 5.216,0.896 0.172,-0.173 -0.529,-4.015 -1.072,-5.886 -0.631,-2.169 -0.789,-2.22 -6.878,-2.22 -4.306,0 -5.293,-0.144 -5.293,-0.775 0,-0.243 1.759,-0.293 5.48,-0.155 3.013,0.117 5.479,0.08 5.479,-0.07 0,-0.397 -3.226,-4.902 -4.015,-5.607 -0.631,-0.562 -1.051,-0.58 -5.552,-0.225 -2.679,0.209 -4.963,0.288 -5.077,0.173 -0.539,-0.537 0.764,-0.879 4.483,-1.177 2.223,-0.177 4.12,-0.397 4.212,-0.489 0.308,-0.309 -1.81,-1.583 -8.071,-4.856 -7.81,-4.08 -11.574,-6.645 -16.01,-10.913 -4.198,-4.036 -6.399,-6.677 -9.774,-11.729 -4.513,-6.755 -7.133,-12.57 -9.326,-20.694 -1.453,-5.38 -2.247,-7.183 -4.013,-9.097 -2.615,-2.838 -6.814,-4.239 -13.512,-4.508 -4.814,-0.194 -7.773,0.148 -11.324,1.309 -4.762,1.556 -6.523,3.868 -8.842,11.611 -4.611,15.394 -11.862,26.937 -22.435,35.714 -4.105,3.408 -7.93,5.782 -14.124,8.766 -2.686,1.294 -5.622,2.89 -6.525,3.545 l -1.638,1.192 2.633,0.223 c 1.448,0.117 3.765,0.221 5.149,0.221 2.091,0 2.518,0.09 2.518,0.554 0,0.495 -0.632,0.539 -5.862,0.41 l -5.861,-0.144 -1.588,1.965 c -0.873,1.081 -1.844,2.399 -2.157,2.929 l -0.568,0.966 4.593,-0.117 c 2.811,-0.08 4.592,0.01 4.592,0.213 0,0.495 -2.138,0.754 -6.267,0.758 h -3.7 l -0.501,1.199 c -0.519,1.243 -1.41,6.233 -1.152,6.457 0.08,0.06 2.228,-0.304 4.77,-0.831 5.301,-1.097 6.166,-1.174 6.166,-0.556 0,0.306 -1.631,0.74 -5.185,1.379 -2.851,0.513 -5.317,1.015 -5.479,1.116 -0.424,0.26 -0.367,3.672 0.09,5.49 0.305,1.211 0.506,1.491 0.942,1.312 1.828,-0.752 8.5,-2.893 9.015,-2.893 0.338,0 0.615,0.133 0.615,0.295 0,0.263 -1.337,0.774 -8.049,3.08 -2.021,0.695 -2.031,0.821 -0.361,4.331 1.921,4.039 1.717,3.946 4.673,2.154 3.558,-2.158 7.814,-4.38 8.389,-4.38 1.008,0 0.421,0.706 -1.313,1.578 -3.004,1.51 -8.819,4.976 -8.819,5.255 0,0.422 2.691,3.362 3.803,4.153 0.877,0.624 1.105,0.66 1.641,0.264 0.343,-0.254 2.926,-2.023 5.743,-3.933 5.568,-3.776 8.924,-5.704 9.408,-5.405 0.509,0.314 0.117,0.646 -2.858,2.37 -2.118,1.23 -10.538,6.851 -11.89,7.937 -0.409,0.329 4.635,3.194 5.622,3.194 0.29,0 2.03,-1.273 3.864,-2.826 5.708,-4.836 13.68,-10.532 14.738,-10.532 1.081,0 0.464,0.75 -1.798,2.181 -5.153,3.265 -15.092,11.3 -14.72,11.901 0.166,0.27 2.267,0.951 4.747,1.54 l 1.005,0.238 -1.114,-1.973 c -0.617,-1.092 -0.912,-1.908 -0.662,-1.827 0.398,0.129 2.514,3.029 2.77,3.8 0.207,0.619 4.119,0.88 11.04,0.737 3.955,-0.08 8.425,-0.365 9.932,-0.631 z m -1.696,-6.689 c -0.26,-0.422 1.857,-3.115 3.771,-4.795 1.133,-0.996 2.206,-1.38 2.206,-0.792 0,0.587 -5.746,5.958 -5.977,5.587 z m -8.924,-0.718 c -0.243,-0.393 3.882,-4.427 4.541,-4.44 0.785,-0.01 0.444,0.508 -1.723,2.655 -2.234,2.215 -2.462,2.36 -2.818,1.785 z m 58.132,-2.144 c -1.36,-1.37 -2.473,-2.604 -2.473,-2.741 0,-0.136 0.246,-0.248 0.546,-0.248 0.669,0 5.275,4.385 5.275,5.022 0,0.955 -0.954,0.376 -3.348,-2.033 z m 6.719,-0.195 c -1.965,-1.965 -2.43,-2.794 -1.563,-2.794 0.453,0 4.7,4.108 4.7,4.547 0,0.772 -1.388,0 -3.137,-1.753 z m -51.87,-9.36 c -0.268,-0.434 3.833,-4.364 4.575,-4.383 0.95,-0.03 0.313,0.997 -1.774,2.839 -1.21,1.07 -2.28,1.945 -2.377,1.945 -0.09,0 -0.288,-0.181 -0.424,-0.401 z m -6.259,-0.944 c -0.337,-0.208 -0.16,-0.499 0.696,-1.14 2.154,-1.613 4.401,-2.465 4.401,-1.667 0,0.721 -4.479,3.189 -5.097,2.807 z m 48.075,-1.61 c -1.499,-1.271 -2.157,-2.041 -1.933,-2.265 0.378,-0.378 0.735,-0.163 3.241,1.953 1.49,1.257 2.053,2.24 1.286,2.24 -0.179,0 -1.347,-0.868 -2.594,-1.928 z m -64.555,-1.241 c 0,-0.562 5.682,-3.809 6.154,-3.516 0.578,0.356 0.18,0.704 -2.717,2.375 -2.861,1.651 -3.438,1.842 -3.437,1.141 z m 8.904,-0.01 c 0,-0.581 4.984,-3.586 6.422,-3.871 1.773,-0.352 1.341,0.424 -0.856,1.539 -1.083,0.551 -2.554,1.401 -3.268,1.889 -1.419,0.971 -2.298,1.139 -2.298,0.443 z m 67.301,0.03 c -3.037,-1.695 -5.358,-3.431 -5.028,-3.76 0.262,-0.261 1.04,0.04 2.698,1.046 3.161,1.92 3.729,2.391 3.338,2.777 -0.2,0.198 -0.584,0.175 -1.008,-0.07 z m 7.474,-1.068 c -2.65,-1.341 -3.58,-2.28 -2.251,-2.27 0.779,0 6.005,2.857 6.176,3.37 0.237,0.709 -1.078,0.34 -3.925,-1.1 z m -93.067,-0.852 c -0.495,-0.803 6.015,-3.561 6.726,-2.849 0.214,0.213 0.323,0.433 0.24,0.489 -0.135,0.09 -4.849,1.986 -6.193,2.487 -0.31,0.116 -0.657,0.06 -0.773,-0.13 z m 101.779,-1.028 c -2.359,-1.113 -3.424,-2.116 -2.229,-2.101 0.727,0.01 5.525,2.544 5.483,2.897 -0.06,0.596 -0.56,0.475 -3.254,-0.796 z m -11.991,-7.699 c -1.65,-0.453 -2.654,-0.905 -2.654,-1.195 0,-0.355 0.333,-0.409 1.414,-0.227 2.211,0.374 4.857,1.319 5.011,1.792 0.188,0.576 -0.607,0.498 -3.771,-0.37 z m -78.502,0.136 c -0.104,-0.175 -0.08,-0.397 0.08,-0.491 0.515,-0.317 5.678,-1.587 6.457,-1.587 1.318,0 1.24,0.635 -0.116,0.99 -5.953,1.552 -6.113,1.581 -6.418,1.088 z m 88.89,-2.381 c -0.644,-0.117 -1.242,-0.427 -1.33,-0.691 -0.131,-0.395 0.246,-0.439 2.108,-0.249 2.519,0.259 3.305,0.482 3.305,0.936 0,0.337 -2.237,0.338 -4.083,0 z m -96.954,-0.331 c 0,-0.424 0.715,-0.611 3.273,-0.861 1.688,-0.166 2.949,0.182 2.454,0.677 -0.435,0.435 -5.727,0.604 -5.727,0.184 z m 9.607,-7.247 c -2.099,-0.55 -2.835,-1.067 -2.132,-1.501 0.424,-0.262 3.877,0.761 4.46,1.321 0.761,0.733 0,0.79 -2.328,0.18 z m 81.346,-0.947 c -0.414,-0.415 -0.137,-0.67 1.133,-1.05 1.593,-0.478 2.785,-0.513 2.785,-0.08 0,0.469 -3.554,1.495 -3.918,1.13 z m -134.024,38.858 c 2.966,-1.799 8.868,-5.014 13.115,-7.146 7.389,-3.709 7.713,-3.914 7.513,-4.732 -0.117,-0.471 -0.315,-0.954 -0.443,-1.074 -0.223,-0.209 -8.375,2.182 -22.087,6.477 l -6.443,2.018 1.241,0.948 c 1.546,1.179 1.318,1.562 -0.325,0.546 -0.819,-0.506 -1.216,-0.609 -1.216,-0.316 0,0.255 -0.193,0.173 -0.465,-0.199 -0.295,-0.402 -0.678,-0.551 -1.051,-0.409 -0.51,0.195 -0.427,0.421 0.624,1.705 0.666,0.813 1.602,1.688 2.079,1.943 0.983,0.525 1.148,1.538 0.303,1.861 -0.498,0.191 -0.468,0.323 0.239,1.075 0.444,0.471 0.967,0.793 1.165,0.716 0.197,-0.08 2.786,-1.613 5.751,-3.413 z m 189.716,1.564 c -0.279,-0.54 -0.277,-1.74 0,-1.939 0.07,-0.04 0.805,-0.476 1.653,-0.961 1.636,-0.935 2.975,-2.201 2.66,-2.516 -0.103,-0.104 -0.681,-0.251 -1.28,-0.328 -0.601,-0.08 -3.892,-1.277 -7.315,-2.67 -8.36,-3.403 -15.521,-6.079 -16.835,-6.292 -1.008,-0.164 -1.102,-0.09 -1.483,1.184 -0.519,1.732 -0.513,2.135 0.04,2.135 0.824,0 8.598,4.066 15.312,8.008 3.674,2.157 6.876,3.934 7.118,3.95 0.311,0.01 0.35,-0.148 0.131,-0.571 z m -1.349,-2.911 c 0.153,-0.482 3.238,-2.654 3.771,-2.654 0.539,0 -0.41,0.985 -2.006,2.084 -1.594,1.097 -1.968,1.217 -1.765,0.57 z m -197.323,-4.042 c 0.85,-0.454 0.604,-0.845 -1.069,-1.699 -1.879,-0.958 -2.051,-0.865 -1.282,0.69 0.7,1.415 1.196,1.628 2.351,1.009 z m 204.37,-2.385 c 0.753,-0.486 0.412,-0.662 -7.535,-3.895 -7.66,-3.117 -17.775,-6.717 -18.878,-6.717 -0.29,0 -0.589,0.706 -0.807,1.901 -0.304,1.682 -0.274,1.939 0.263,2.227 0.334,0.178 0.772,0.325 0.971,0.325 0.55,0 10.594,3.792 15.437,5.829 2.354,0.99 5.052,2.075 5.993,2.411 l 1.712,0.613 1.028,-1.094 c 0.566,-0.601 1.383,-1.321 1.816,-1.6 z m 0.751,1.548 c 1.148,-1.221 0.611,-1.438 -0.832,-0.338 -1.397,1.065 -1.46,1.194 -0.596,1.194 0.345,0 0.987,-0.386 1.428,-0.856 z m -200.932,-0.306 c 4.476,-1.488 21.267,-6.678 22.921,-7.084 0.895,-0.219 1.627,-0.509 1.627,-0.644 0,-0.334 -0.771,-4.274 -0.861,-4.392 -0.16,-0.215 -11.104,3.126 -16.603,5.069 -5.245,1.854 -13.338,4.998 -13.646,5.303 -0.07,0.06 0.594,0.425 1.46,0.809 0.865,0.382 1.665,0.934 1.778,1.227 0.265,0.692 0.422,0.678 3.324,-0.288 z m 202.528,-2.692 c 0.145,-0.236 0.271,-0.889 0.277,-1.452 0,-0.829 0.242,-1.134 1.212,-1.595 1.234,-0.587 4.793,-4.403 4.107,-4.403 -0.704,0 -1.87,0.769 -2.763,1.82 l -0.882,1.038 -2.976,-0.591 c -1.636,-0.325 -6.094,-1.441 -9.906,-2.479 -6.609,-1.802 -16.724,-4.232 -17.635,-4.237 -0.234,0 -0.427,0.346 -0.427,0.773 0,0.696 0.477,0.925 4.709,2.247 4.825,1.508 12.613,4.513 19.607,7.561 4.437,1.934 4.317,1.9 4.677,1.318 z m -202.703,-2.797 c 7.232,-2.72 16.837,-5.923 20.613,-6.871 2.685,-0.675 2.919,-0.803 3.019,-1.65 0.104,-0.866 0.04,-0.907 -1.027,-0.715 -4.933,0.88 -8.981,1.847 -17.747,4.238 -11.022,3.007 -12.481,3.329 -12.794,2.822 -0.117,-0.195 0.923,-0.632 2.44,-1.024 1.456,-0.377 6.578,-1.765 11.382,-3.085 4.804,-1.319 10.761,-2.826 13.24,-3.348 4.444,-0.934 4.509,-0.961 4.709,-1.965 0.117,-0.56 0.203,-1.474 0.203,-2.032 0,-1.003 -0.01,-1.012 -1.456,-0.778 -3.035,0.496 -12.712,2.944 -20.292,5.137 -4.333,1.253 -9.214,2.653 -10.846,3.11 -3.726,1.046 -5.429,1.748 -4.738,1.954 0.283,0.09 1.395,0.409 2.471,0.723 1.077,0.315 2.049,0.72 2.162,0.901 0.279,0.453 -0.443,0.387 -2.051,-0.185 -1.708,-0.608 -1.909,-0.414 -0.801,0.774 0.482,0.515 1.054,1.284 1.271,1.709 0.219,0.423 0.704,0.77 1.079,0.77 0.427,0 0.814,0.35 1.036,0.935 0.453,1.193 0.967,1.504 1.773,1.073 0.352,-0.189 3.211,-1.31 6.354,-2.493 z m 205.562,-3.967 c 0.604,-0.565 1.346,-1.028 1.646,-1.028 1.315,0 -0.532,-0.755 -7.004,-2.864 -7.076,-2.306 -18.511,-5.508 -23.841,-6.678 l -2.996,-0.658 v 1.247 c 0,0.686 0.09,1.804 0.208,2.484 l 0.205,1.236 3.816,0.781 c 2.098,0.428 6.898,1.625 10.666,2.66 16.154,4.436 15.653,4.354 17.296,2.82 z m -213.779,-3.297 c 12.734,-3.725 16.572,-4.796 21.98,-6.132 3.297,-0.813 6.963,-1.666 8.147,-1.895 2.251,-0.435 2.585,-0.729 3.181,-2.805 l 0.291,-1.019 -2.299,0.23 c -15.035,1.497 -23.827,3.065 -34.079,6.074 l -3.696,1.085 0.225,1.054 c 0.19,0.888 0.651,2.44 1.362,4.586 0.08,0.248 0.316,0.347 0.519,0.222 0.203,-0.13 2.168,-0.756 4.369,-1.4 z m 217.355,-3.896 c 0.256,0 0.651,0.501 0.878,1.113 l 0.411,1.113 0.483,-1.122 c 0.434,-1.007 0.421,-1.188 -0.129,-1.773 -1.126,-1.208 -12.984,-4.027 -23.035,-5.477 -5.998,-0.865 -15.059,-1.684 -15.248,-1.38 -0.08,0.116 0.03,0.77 0.238,1.441 0.355,1.153 0.49,1.241 2.469,1.618 6.537,1.244 20.015,5.009 29.836,8.337 l 3.425,1.16 0.104,-2.515 c 0.08,-1.843 0.225,-2.515 0.566,-2.515 z m -224.145,1.038 c 0,-1.067 -0.116,-1.316 -0.514,-1.161 -0.603,0.23 -0.627,0.462 -0.178,1.643 0.472,1.244 0.692,1.091 0.692,-0.482 z m 4.347,-3.759 c 8.604,-2.588 18.712,-4.439 30.893,-5.657 2.899,-0.29 5.382,-0.527 5.517,-0.527 0.401,0 2.811,-3.811 2.565,-4.057 -0.409,-0.409 -29.59,-0.226 -35.616,0.223 -5.939,0.443 -11.234,0.997 -12.157,1.274 -0.411,0.129 -0.492,0.665 -0.403,2.703 l 0.117,2.55 1.026,-1.09 1.027,-1.089 -0.211,2.655 c -0.117,1.459 -0.08,2.654 0.08,2.654 0.16,0 0.59,-0.227 0.956,-0.502 1.392,-1.054 2.093,-0.117 0.996,1.338 -0.672,0.889 -0.635,1.307 0.103,1.074 0.332,-0.103 2.633,-0.802 5.116,-1.549 z m 223.274,-0.144 c -0.264,-1.409 0.03,-2.292 0.682,-2.042 0.715,0.274 0.612,-1.459 -0.19,-3.228 -0.843,-1.856 -0.201,-1.981 1.315,-0.256 0.579,0.659 1.095,1.199 1.148,1.199 0.05,0 0.05,-0.886 0,-1.969 -0.08,-1.433 0,-1.83 0.251,-1.456 0.294,0.427 0.355,0.389 0.359,-0.215 0,-1.002 -1.126,-1.375 -5.647,-1.86 -4.47,-0.481 -41.409,-0.87 -41.223,-0.435 0.644,1.518 2.66,4.279 3.207,4.392 0.377,0.08 2.843,0.314 5.48,0.524 8.857,0.704 18.808,2.4 28.23,4.81 2.906,0.743 5.359,1.428 5.452,1.52 0.09,0.09 0.391,0.168 0.663,0.168 0.376,0 0.442,-0.275 0.278,-1.152 z m -233.785,-6.868 c 0,-0.267 0.09,-0.732 0.21,-1.031 0.152,-0.4 0.07,-0.489 -0.343,-0.334 -0.594,0.228 -0.778,1.852 -0.21,1.852 0.189,0 0.343,-0.219 0.343,-0.487 z m 7.736,-3.428 c 10.569,-0.967 23.351,-1.358 33.02,-1.011 4.993,0.18 9.304,0.219 9.581,0.09 0.74,-0.352 -1.13,-0.576 -6.669,-0.796 -8.715,-0.347 -15.228,-1.934 -21.487,-5.234 -8.772,-4.625 -15.636,-13.363 -19.822,-25.228 -0.639,-1.81 -1.26,-3.289 -1.38,-3.29 -0.117,0 -0.325,0.423 -0.453,0.941 -0.13,0.519 -0.923,2.704 -1.764,4.858 -0.841,2.154 -1.484,4.123 -1.43,4.376 0.07,0.312 0.531,0.104 1.438,-0.647 l 1.339,-1.107 -0.249,0.994 c -0.137,0.547 -0.779,2.347 -1.425,4.002 -1.342,3.437 -1.45,4.049 -0.576,3.298 0.788,-0.677 1.798,-1.024 1.798,-0.617 0,0.177 -0.384,1.193 -0.856,2.257 -0.471,1.065 -0.857,1.995 -0.857,2.065 0,0.08 0.54,0.129 1.199,0.129 0.66,0 1.199,0.07 1.199,0.13 0,0.06 -0.404,0.853 -0.9,1.738 -0.947,1.697 -0.856,2.086 0.558,2.339 0.845,0.152 0.844,0.154 -0.08,0.201 -0.571,0.03 -1.142,0.364 -1.469,0.863 -0.496,0.756 -1.574,5.024 -1.34,5.299 0.05,0.06 0.592,-0.434 1.188,-1.114 1.357,-1.545 1.832,-1.583 1.499,-0.116 -0.335,1.474 -0.468,4.677 -0.235,5.688 0.164,0.718 0.323,0.784 1.452,0.604 0.698,-0.116 3.722,-0.427 6.718,-0.701 z m 228.691,-1.052 c -0.117,-0.706 -0.05,-1.199 0.151,-1.199 0.446,0 1.168,0.867 1.041,1.248 -0.05,0.162 0.05,0.37 0.245,0.465 0.936,0.468 0.418,-2.82 -1.041,-6.593 -0.357,-0.927 0.361,-0.712 1.527,0.454 1.203,1.203 1.27,0.99 0.51,-1.621 -0.568,-1.955 -1.253,-2.516 -3.074,-2.516 -0.458,0 -0.834,-0.154 -0.834,-0.342 0,-0.189 0.531,-0.343 1.178,-0.343 1.56,0 1.729,-0.387 0.883,-2.042 -0.907,-1.78 -0.318,-1.819 1.475,-0.104 0.987,0.949 1.282,1.103 1.127,0.59 -0.116,-0.382 -0.439,-1.582 -0.721,-2.665 -0.282,-1.084 -0.834,-2.597 -1.224,-3.363 -0.866,-1.698 -0.641,-2.035 0.697,-1.045 0.556,0.411 1.094,0.746 1.195,0.746 0.457,0 0.08,-1.214 -1.336,-4.258 -0.837,-1.802 -1.411,-3.277 -1.276,-3.277 0.133,0 0.808,0.466 1.497,1.034 l 1.255,1.033 -1.22,-3.688 c -0.671,-2.028 -1.332,-3.811 -1.466,-3.961 -0.136,-0.15 -0.597,0.698 -1.024,1.883 -1.832,5.088 -5.533,11.274 -9.525,15.925 -4.749,5.53 -12.621,9.996 -20.627,11.702 -3.491,0.743 -9.994,1.407 -13.842,1.414 -1.304,0 -2.267,0.103 -2.142,0.23 0.129,0.13 8.666,0.265 18.98,0.311 14.149,0.06 19.635,0.204 22.35,0.581 5.663,0.784 5.47,0.806 5.241,-0.606 z m -181.193,-5.864 c 0.61,-0.198 -2.196,-0.307 -7.878,-0.305 -9.313,0 -11.396,-0.235 -16.553,-1.902 -6.787,-2.195 -12.713,-6.66 -16.594,-12.508 -3.131,-4.717 -6.965,-14.733 -8.575,-22.404 -1.186,-5.643 -1.555,-16.186 -0.707,-20.176 1.14,-5.371 4.143,-9.652 8.189,-11.673 2.875,-1.436 3.484,-1.304 1.646,0.359 -0.828,0.75 -1.446,1.417 -1.371,1.484 0.08,0.07 1.516,-0.168 3.202,-0.521 2.014,-0.422 3.18,-0.526 3.403,-0.304 0.221,0.222 -0.692,1.357 -2.662,3.309 -3.156,3.127 -4.871,5.164 -4.589,5.447 0.09,0.09 0.954,0 1.914,-0.204 0.959,-0.206 2.177,-0.324 2.704,-0.262 0.947,0.117 0.937,0.13 -0.728,1.309 -2.858,2.024 -6.829,5.606 -6.381,5.755 0.233,0.08 1.35,-0.04 2.481,-0.263 1.133,-0.224 2.149,-0.316 2.259,-0.206 0.116,0.104 -0.26,0.699 -0.822,1.309 -1.619,1.754 -3.555,4.276 -3.555,4.63 0,0.18 0.838,0.09 1.885,-0.199 1.036,-0.289 1.969,-0.44 2.072,-0.336 0.104,0.103 -0.691,1.478 -1.764,3.053 -1.804,2.647 -3.068,5.015 -2.811,5.273 0.06,0.06 1.17,-0.347 2.468,-0.901 1.298,-0.554 2.425,-0.943 2.504,-0.865 0.08,0.08 -0.507,1.43 -1.297,3.004 -2.257,4.483 -4.002,10.225 -3.107,10.225 0.194,0 0.45,-0.159 0.569,-0.352 0.57,-0.921 8.407,-4.387 12.287,-5.434 4.024,-1.085 4.319,-1.126 4.319,-0.608 0,0.3 -1.072,0.748 -2.997,1.251 -4.859,1.27 -10.86,3.837 -13.359,5.713 -1.334,1.003 -1.305,1.272 0.647,5.736 2.642,6.042 7.048,11.396 12.023,14.612 7.313,4.727 19.243,6.48 31.259,4.594 7.528,-1.182 14.33,-4.611 21.142,-10.659 4.158,-3.69 8.974,-9.395 10.567,-12.516 l 0.643,-1.258 -1.792,0.167 c -2.273,0.211 -3.631,-0.574 -4.657,-2.69 -1.004,-2.077 -1.014,-6.289 -0.01,-8.488 1.437,-3.179 4.004,-4.871 6.259,-4.127 2.22,0.733 3.353,2.61 3.626,6.01 l 0.192,2.398 1.627,-4.453 c 2.184,-5.977 2.655,-8.137 2.877,-13.186 0.228,-5.192 -0.319,-8.242 -2.145,-11.952 -2.368,-4.81 -6.977,-8.322 -13.661,-10.411 -12.547,-3.921 -30.145,-4.913 -46.238,-2.603 -19.327,2.773 -26.852,7.262 -29.699,17.721 -0.949,3.482 -1.024,12.88 -0.144,18.019 2.131,12.446 7.042,24.06 12.855,30.401 4.786,5.219 12.211,8.92 20.413,10.176 2.516,0.385 16.761,0.237 18.073,-0.189 z m -19.957,-4.913 c 0,-0.532 1.08,-0.972 5.535,-2.254 4.506,-1.297 8.164,-1.865 8.164,-1.268 0,0.43 -0.813,0.77 -1.84,0.77 -0.932,0 -6.512,1.437 -9.258,2.385 -2.289,0.789 -2.601,0.833 -2.601,0.367 z m -6.85,-3.43 c 0,-0.8 4.846,-2.735 10.275,-4.104 5.838,-1.47 15.02,-2.376 15.311,-1.51 0.09,0.259 -0.972,0.463 -3.223,0.621 -7.061,0.495 -14.041,2.048 -19.36,4.312 -2.587,1.1 -3.003,1.195 -3.003,0.681 z m -6.165,-3.77 c 0,-0.422 1.929,-1.627 4.624,-2.89 2.814,-1.319 9.896,-3.622 11.14,-3.622 1.499,0 1.238,0.606 -0.437,1.016 -4.862,1.19 -7.656,2.204 -11.98,4.351 -3.25,1.611 -3.347,1.645 -3.347,1.145 z m -4.876,-3.575 c 1.663,-2.115 7.081,-5.439 6.532,-4.009 -0.117,0.317 -6.651,4.84 -6.986,4.84 -0.117,0 0.09,-0.374 0.454,-0.831 z m 30.563,-3.151 c 0,-0.779 8.436,-1.053 9.192,-0.298 0.363,0.363 -0.267,0.441 -4.654,0.573 -3.371,0.103 -4.538,0.03 -4.538,-0.275 z m -31.852,-3.002 c 0,-0.284 0.527,-0.917 1.17,-1.409 1.342,-1.023 5.641,-3.249 6.279,-3.251 1.013,0 0.276,0.751 -1.712,1.752 -1.177,0.593 -2.757,1.493 -3.511,2.002 -2.116,1.427 -2.226,1.471 -2.226,0.906 z m 29.331,-2.317 c -1.668,-0.354 -4.596,-0.84 -6.507,-1.081 -1.909,-0.239 -3.429,-0.583 -3.375,-0.763 0.293,-0.974 15.143,1.236 15.143,2.253 0,0.47 -1.764,0.333 -5.261,-0.409 z m 7.289,-3.398 c -5.798,-0.898 -10.601,-7.72 -10.586,-15.03 0,-3.943 1.555,-8.71 4.118,-12.705 1.218,-1.898 1.235,-2.035 0.245,-2.04 -2.07,-0.01 -3.013,-0.943 -1.375,-1.357 0.393,-0.103 1.4,-1.066 2.239,-2.149 2.636,-3.404 4.504,-4.4 8.298,-4.425 2.006,-0.01 2.229,-0.06 1.369,-0.338 -1.38,-0.43 -4.402,-0.08 -6.223,0.729 -0.816,0.361 -2.324,1.451 -3.351,2.421 -2.864,2.71 -3.189,1.866 -0.358,-0.932 1.949,-1.924 2.773,-2.485 4.404,-2.995 4.469,-1.397 9.41,0.104 13.413,4.084 3.75,3.726 5.166,7.748 6.634,18.837 1.205,9.115 1.22,9.384 0.499,9.636 -0.349,0.117 -2.868,1.259 -5.599,2.527 -7.457,3.465 -10.369,4.258 -13.727,3.737 z m 1.397,-1.847 c -3.45,-0.989 -5.025,-2.125 -6.793,-4.901 -1.91,-2.995 -2.549,-5.596 -2.373,-9.648 0.164,-3.792 -0.303,-3.684 -0.654,0.155 -0.666,7.291 4.593,14.845 10.334,14.837 0.878,0 0.803,-0.07 -0.514,-0.443 z m 1.74,-19.798 c 2.531,-1.706 3.465,-4.679 2.039,-6.491 -2.921,-3.714 -9.16,-0.05 -7.871,4.611 0.704,2.547 3.502,3.451 5.832,1.88 z m -31.194,10.24 c 0,-0.491 6.825,-2.953 8.186,-2.953 1.649,0 0.466,0.664 -3.566,2.003 -2.358,0.781 -4.361,1.422 -4.453,1.422 -0.09,0 -0.167,-0.213 -0.167,-0.472 z m -0.829,-5.396 c 0.241,-0.389 5.819,-3.112 7.251,-3.539 0.557,-0.167 0.77,-0.09 0.77,0.284 0,0.283 -0.347,0.624 -0.77,0.758 -0.425,0.135 -2.034,0.839 -3.576,1.565 -2.822,1.328 -4.124,1.658 -3.675,0.932 z m 3.911,-7.095 c 0,-0.492 1.091,-1.279 3.87,-2.789 2.452,-1.335 3.357,-1.574 2.852,-0.759 -0.207,0.335 -6.147,3.838 -6.51,3.838 -0.116,0 -0.212,-0.13 -0.212,-0.29 z m 5.822,-11.332 c 0,-0.719 8.003,-7.232 9.664,-7.863 1.662,-0.632 1.329,0.187 -0.597,1.465 -1.033,0.686 -3.335,2.479 -5.113,3.983 -3.073,2.599 -3.954,3.137 -3.954,2.415 z m 4.795,-8.924 c 0,-0.532 3.37,-2.633 5.81,-3.623 2.422,-0.982 5.835,-1.512 5.835,-0.905 0,0.201 -0.887,0.548 -1.969,0.771 -2.464,0.504 -5.624,1.813 -7.504,3.105 -1.495,1.029 -2.172,1.232 -2.172,0.652 z m 167.139,71.265 c 2.097,-0.493 4.734,-1.482 7.421,-2.784 3.634,-1.762 4.568,-2.402 7.289,-4.992 5.002,-4.76 8.623,-10.89 11.311,-19.156 2.671,-8.209 3.997,-17.01 3.66,-24.301 -0.54,-11.713 -4.59,-17.181 -15.706,-21.206 -9.174,-3.32 -21.594,-4.805 -35.793,-4.277 -8.778,0.327 -13.632,0.952 -19.964,2.571 -8.851,2.266 -13.588,5.415 -16.239,10.803 -1.837,3.732 -2.361,6.719 -2.155,12.28 0.179,4.787 1.068,9.076 3.092,14.9 l 0.834,2.397 0.03,-2.123 c 0.04,-3.512 1.345,-5.235 4.184,-5.508 1.71,-0.164 1.759,-0.142 3.373,1.533 1.887,1.958 2.438,3.589 2.426,7.192 -0.01,4.181 -1.873,6.776 -4.698,6.552 -0.802,-0.06 -1.459,-0.06 -1.459,0 0,0.07 0.826,1.378 1.836,2.913 4.224,6.426 11.078,12.789 17.686,16.419 6.798,3.735 14.006,5.426 23.118,5.426 12.035,0 19.983,-3.721 26.547,-12.433 1.991,-2.642 5.182,-8.681 5.62,-10.637 0.183,-0.818 0,-1.084 -1.423,-2.142 -2.164,-1.603 -9.226,-5.059 -12.334,-6.037 -1.437,-0.452 -2.484,-0.973 -2.484,-1.234 0,-0.58 0.975,-0.356 4.819,1.108 3.484,1.327 5.883,2.515 8.812,4.364 1.186,0.749 2.212,1.306 2.28,1.236 0.152,-0.158 -0.653,-4.825 -1.182,-6.844 -0.217,-0.827 -0.869,-2.545 -1.449,-3.819 -0.58,-1.273 -0.962,-2.409 -0.848,-2.523 0.117,-0.116 0.997,0.28 1.964,0.874 1.692,1.041 1.748,1.053 1.515,0.297 -0.337,-1.09 -1.065,-2.505 -2.477,-4.813 -0.664,-1.086 -1.113,-2.069 -0.998,-2.184 0.117,-0.116 0.835,0.04 1.6,0.347 0.765,0.307 1.546,0.557 1.735,0.557 0.637,0 -0.629,-1.855 -3.457,-5.07 -1.541,-1.751 -2.74,-3.247 -2.665,-3.322 0.08,-0.08 1.179,0.24 2.453,0.702 2.462,0.894 2.97,0.993 2.967,0.583 0,-0.141 -1.311,-1.913 -2.91,-3.938 -1.6,-2.026 -2.769,-3.683 -2.597,-3.683 0.173,0 1.033,0.308 1.912,0.685 0.879,0.378 1.82,0.686 2.092,0.686 0.864,0 -0.415,-1.956 -3.163,-4.841 -1.389,-1.458 -2.525,-2.797 -2.525,-2.977 0,-0.18 1.031,-0.342 2.289,-0.362 3.854,-0.06 4.356,-0.484 2.255,-1.911 -1.647,-1.119 -1.225,-1.109 1.015,0.02 4.061,2.059 6.882,5.914 8.371,11.434 0.835,3.098 0.826,12.884 -0.01,17.468 -2.575,14.024 -5.851,22.167 -11.829,29.399 -3.207,3.879 -9.77,7.896 -15.15,9.271 -5.367,1.373 -12.667,1.799 -18.274,1.068 -1.318,-0.172 -3.09,-0.4 -3.938,-0.506 l -1.542,-0.192 1.199,0.561 c 1.891,0.886 4.472,1.11 11.645,1.013 5.487,-0.08 7.259,-0.226 9.932,-0.856 z m -3.768,-5.357 c -2.192,-0.7 -4.023,-1.145 -8.476,-2.062 -0.424,-0.09 -0.771,-0.331 -0.771,-0.542 0,-1.038 12.562,1.951 12.939,3.078 0.193,0.58 -0.781,0.455 -3.692,-0.474 z m 5.53,-4.117 c -3.897,-1.635 -9.117,-2.849 -13.236,-3.08 -4.025,-0.225 -4.966,-0.384 -4.966,-0.839 0,-0.796 7.841,-0.158 12.4,1.007 3.311,0.847 7.921,2.639 8.907,3.459 1.205,1.006 0.154,0.821 -3.105,-0.547 z m 8.029,-2.216 c -6.965,-4.417 -15.298,-6.575 -24.997,-6.471 -3.089,0.02 -4.849,-0.08 -4.926,-0.307 -0.209,-0.628 2.298,-0.846 7.436,-0.646 5.451,0.212 10.482,1.086 14.489,2.516 2.92,1.044 7.884,3.547 9.31,4.694 1.516,1.221 0.529,1.381 -1.312,0.214 z m 2.338,-5.396 c -1.491,-0.905 -3.006,-1.758 -3.367,-1.895 -0.458,-0.175 -0.549,-0.36 -0.297,-0.61 0.41,-0.41 2.212,0.417 5.131,2.355 1.665,1.106 2.252,1.794 1.53,1.794 -0.157,0 -1.506,-0.74 -2.997,-1.644 z m 2.922,-5.227 c -1.025,-0.567 -3.065,-1.588 -4.533,-2.272 -3.015,-1.404 -3.156,-2.256 -0.191,-1.147 1.932,0.723 5.564,2.769 6.435,3.624 0.932,0.916 0.152,0.823 -1.711,-0.205 z m -30.963,-0.982 c -0.103,-0.176 -0.08,-0.39 0.07,-0.475 0.558,-0.331 10.392,-1.982 12.2,-2.048 2.662,-0.104 2.569,0.559 -0.129,0.881 -1.223,0.147 -4.242,0.647 -6.708,1.114 -5.068,0.956 -5.162,0.965 -5.433,0.528 z m -9.775,-4.594 c -1.225,-0.434 -4.422,-1.841 -7.107,-3.129 l -4.88,-2.341 v -1.25 c 0,-1.603 1.206,-11.296 1.875,-15.069 1.352,-7.617 3.405,-11.345 7.906,-14.363 2.989,-2.004 4.915,-2.576 7.946,-2.358 2.808,0.202 5.259,1.353 7.011,3.293 2.679,2.965 2.295,4 -0.424,1.149 -2.673,-2.803 -6.593,-4.106 -9.587,-3.189 -1.109,0.34 -1.067,0.354 0.581,0.175 2.93,-0.316 5.42,0.605 7.372,2.726 0.893,0.971 2.258,2.411 3.033,3.2 0.775,0.79 1.309,1.599 1.185,1.798 -0.13,0.2 -0.839,0.363 -1.59,0.363 h -1.367 l 1.065,1.549 c 3.955,5.748 5.265,13.069 3.327,18.59 -1.498,4.268 -4.846,7.89 -8.444,9.134 -2.198,0.76 -5.276,0.652 -7.902,-0.278 z m 7.787,-1.752 c 4.664,-2.171 8.122,-8.686 7.49,-14.111 -0.399,-3.419 -0.721,-3.117 -0.721,0.675 0,3.694 -0.04,3.924 -1.235,6.419 -1.97,4.123 -4.448,6.458 -7.842,7.39 -1.331,0.365 -1.401,0.426 -0.513,0.443 0.565,0.01 1.835,-0.356 2.821,-0.816 z m -0.179,-19.68 c 0.772,-0.862 0.954,-1.391 0.954,-2.761 0,-1.402 -0.181,-1.901 -1.044,-2.885 -2.462,-2.804 -6.676,-2.306 -7.537,0.892 -0.319,1.185 -0.264,1.571 0.425,2.959 1.093,2.199 2.727,3.249 4.72,3.03 1.158,-0.129 1.761,-0.427 2.482,-1.235 z m 25.271,10.555 c -1.412,-0.561 -3.562,-1.298 -4.777,-1.636 -2.188,-0.611 -3.167,-1.412 -1.724,-1.412 1.652,0 9.926,3.13 9.926,3.755 0,0.537 -0.617,0.411 -3.425,-0.707 z m 0.171,-5.447 c -0.564,-0.375 -2.075,-1.095 -3.357,-1.6 -2.495,-0.983 -2.987,-1.368 -2.156,-1.686 0.621,-0.239 7.739,3.082 7.739,3.609 0,0.58 -1.109,0.418 -2.226,-0.323 z m -5.401,-8.112 c -2.845,-1.473 -3.628,-2.161 -2.46,-2.161 0.583,0 5.524,2.627 5.811,3.089 0.486,0.787 -0.641,0.475 -3.351,-0.928 z m -4.532,-12.308 c -1.694,-1.416 -3.886,-3.064 -4.869,-3.663 -1.568,-0.954 -2.348,-1.945 -1.533,-1.945 1.047,0 10,6.928 10,7.739 0,0.265 -0.117,0.472 -0.258,0.462 -0.141,-0.01 -1.644,-1.178 -3.34,-2.593 z m -2.7,-6.846 c -2.751,-1.87 -8.279,-3.899 -10.62,-3.899 -0.492,0 -0.893,-0.154 -0.893,-0.343 0,-1.008 6.149,0.129 9.291,1.711 1.746,0.881 4.066,2.591 4.066,2.998 0,0.628 -0.372,0.533 -1.844,-0.467 z m -202.764,69.344 c 0.647,-0.728 0.647,-0.731 -0.103,-0.34 -0.833,0.436 -1.345,1.076 -0.864,1.076 0.171,0 0.603,-0.33 0.963,-0.736 z m -1.368,-44.554 c -0.496,-2.482 -3.361,-5.367 -6.047,-6.089 -1.385,-0.373 -6.718,-1.173 -10.17,-1.524 -1.732,-0.177 -2.141,-0.129 -2.141,0.272 0,0.572 1.02,0.902 2.807,0.909 1.37,0 9.002,0.946 9.898,1.22 0.302,0.09 0.725,0.742 0.941,1.445 0.577,1.874 1.001,2.431 1.389,1.828 0.476,-0.741 1.331,-0.201 2.355,1.487 0.514,0.845 0.991,1.543 1.061,1.548 0.08,0 0.03,-0.486 -0.09,-1.096 z m 247.761,-1.118 c 0.636,-0.848 1.434,-1.542 1.776,-1.542 0.479,0 0.621,-0.268 0.621,-1.17 0,-1.127 0.07,-1.185 1.704,-1.536 0.936,-0.2 3.517,-0.524 5.736,-0.719 5.802,-0.509 6.603,-0.663 6.603,-1.264 0,-0.435 -0.395,-0.483 -2.483,-0.294 -9.862,0.894 -12.338,1.752 -14.174,4.921 -0.663,1.144 -1.332,3.145 -1.051,3.145 0.06,0 0.634,-0.694 1.268,-1.541 z m -254.988,-26.039 c 20.292,-4.647 33.344,-6.971 47.436,-8.44 6.462,-0.674 21.994,-0.582 27.912,0.165 12.484,1.574 20.811,3.866 29.059,8.001 2.761,1.382 5.002,2.275 5.998,2.389 0.876,0.104 4.713,-0.139 8.526,-0.533 8.403,-0.869 17.355,-0.929 25.773,-0.177 3.297,0.295 6.765,0.442 7.706,0.33 1.121,-0.135 3.371,-1.022 6.509,-2.566 5.517,-2.716 9.276,-4.045 15.058,-5.327 14.781,-3.275 32.074,-3.681 49.673,-1.166 6.416,0.917 17.758,3.166 33.735,6.693 7.253,1.599 13.456,2.986 13.787,3.082 0.384,0.116 0.599,-0.01 0.599,-0.351 0,-0.62 -0.642,-0.808 -8.281,-2.417 -3.143,-0.661 -9.448,-2.062 -14.014,-3.113 -26.628,-6.132 -48.884,-7.883 -66.925,-5.266 -10.663,1.547 -16.753,3.285 -23.975,6.841 -2.26,1.113 -4.898,2.174 -5.862,2.355 -1.209,0.228 -3.857,0.179 -8.561,-0.157 -7.898,-0.564 -15.501,-0.628 -20.854,-0.177 -2.073,0.176 -5.953,0.5 -8.624,0.72 l -4.855,0.401 -5.591,-2.762 c -5.907,-2.92 -9.731,-4.219 -16.813,-5.714 -16.75,-3.538 -29.886,-3.748 -50.941,-0.817 -10.748,1.498 -18.753,2.884 -25.617,4.439 -3.335,0.754 -8.529,1.908 -11.543,2.563 -7.8,1.693 -11.226,2.653 -11.406,3.2 -0.2,0.609 0.04,0.567 12.091,-2.196 z m 116.92,-0.734 c 6.447,-0.647 19.392,-0.792 29.84,-0.334 l 6.678,0.293 4.453,-2.276 c 7.125,-3.641 14.902,-5.804 25.858,-7.193 3.635,-0.461 12.536,-1.168 15.412,-1.223 1.316,-0.03 -3.842,-2.012 -6.85,-2.639 -1.984,-0.413 -3.756,-0.489 -7.791,-0.334 -4.777,0.184 -6.427,-0.04 -4.452,-0.585 1.776,-0.497 8.453,-0.631 11.22,-0.228 3.086,0.452 7.841,2.025 9.256,3.063 0.703,0.515 1.982,0.715 6.678,1.037 9.857,0.677 17.925,1.758 29.259,3.918 l 2.557,0.487 -1.167,-1.042 -1.166,-1.042 2.035,0.208 c 1.12,0.117 2.421,0.305 2.89,0.421 0.758,0.187 0.697,0.07 -0.512,-1.057 -1.56,-1.444 -5.091,-4.125 -5.736,-4.355 -0.957,-0.342 0.207,-0.703 2.054,-0.637 l 1.969,0.06 -1.541,-1.051 c -0.848,-0.579 -2.762,-1.693 -4.252,-2.477 l -2.71,-1.424 2.967,-0.989 c 2.941,-0.979 3.768,-1.616 2.102,-1.616 -1.807,0 -5.367,-1.644 -11.636,-5.372 l -1.028,-0.611 2.056,-0.176 2.054,-0.178 -3.108,-2.568 c -1.71,-1.414 -3.56,-2.907 -4.11,-3.32 l -1.002,-0.752 2.57,-0.03 2.568,-0.03 -2.911,-1.895 c -1.602,-1.042 -3.941,-2.421 -5.198,-3.066 -3.074,-1.572 -3.174,-1.871 -0.625,-1.871 1.354,0 2.018,-0.13 1.877,-0.354 -0.52,-0.842 -9.295,-4.861 -12.433,-5.692 -1.823,-0.484 -3.45,-0.96 -3.616,-1.06 -0.486,-0.294 0.514,-0.678 2.442,-0.937 0.989,-0.133 1.791,-0.343 1.782,-0.466 -0.03,-0.34 -5.987,-3.033 -8.818,-3.982 -1.373,-0.459 -3.728,-1.024 -5.231,-1.254 -1.628,-0.25 -2.687,-0.567 -2.617,-0.786 0.07,-0.203 1.069,-0.599 2.234,-0.881 1.165,-0.281 2.118,-0.623 2.118,-0.756 0,-0.815 -9.115,-2.666 -13.129,-2.668 -2.767,0 -2.846,-0.333 -0.466,-1.945 l 1.604,-1.086 -1.11,-0.244 c -0.613,-0.135 -4.117,-0.341 -7.791,-0.456 l -6.676,-0.21 1.197,-0.765 c 1.494,-0.954 0.99,-0.993 -3.257,-0.252 -1.652,0.289 -3.073,0.454 -3.16,0.368 -0.09,-0.09 0.514,-0.643 1.332,-1.238 l 1.488,-1.081 -2.912,0.228 c -2.551,0.201 -6.929,0.812 -10.103,1.411 -0.971,0.184 -0.923,0.104 0.856,-1.521 l 1.884,-1.715 -4.806,0.99 c -2.642,0.546 -5.687,1.296 -6.764,1.666 -1.077,0.37 -1.958,0.602 -1.958,0.514 0,-0.09 0.408,-0.777 0.906,-1.53 0.498,-0.754 0.839,-1.437 0.756,-1.52 -0.233,-0.233 -3.55,1.385 -5.287,2.58 -0.858,0.592 -1.623,1.014 -1.699,0.937 -0.08,-0.08 0.256,-0.719 0.739,-1.429 0.483,-0.711 0.796,-1.373 0.696,-1.473 -0.231,-0.232 -3.578,1.678 -4.574,2.61 -0.855,0.798 -1.468,0.915 -1.475,0.279 0,-0.432 -3.794,-3.079 -4.046,-2.827 -0.08,0.08 0.202,0.684 0.616,1.354 1.261,2.04 0.608,2.084 -1.717,0.117 -3.596,-3.045 -4.494,-3.279 -3.026,-0.79 0.401,0.678 0.655,1.306 0.567,1.396 -0.09,0.09 -0.857,-0.227 -1.705,-0.702 -1.7,-0.949 -5.208,-2.234 -6.065,-2.221 -0.35,0 -0.01,0.506 0.934,1.404 0.813,0.768 1.421,1.452 1.351,1.522 -0.07,0.07 -2.354,-0.319 -5.075,-0.867 -2.721,-0.547 -5.95,-1.099 -7.174,-1.226 l -2.226,-0.229 1.586,1.031 c 2.282,1.482 2.444,1.915 0.598,1.602 -1.511,-0.256 -10.917,-1.099 -10.917,-0.979 0,0.04 0.847,0.544 1.883,1.128 1.036,0.585 1.884,1.102 1.884,1.147 0,0.04 -1.954,0.03 -4.342,-0.04 -4.26,-0.117 -13.144,0.514 -13.107,0.936 0,0.116 0.731,0.682 1.602,1.256 0.871,0.572 1.634,1.189 1.695,1.369 0.07,0.201 -2.058,0.329 -5.456,0.329 -5.156,0 -9.172,0.502 -9.158,1.147 0,0.129 0.773,0.646 1.713,1.165 0.939,0.518 1.707,1.095 1.707,1.284 0,0.198 -1.113,0.343 -2.653,0.344 -2.756,0 -8.535,0.751 -10.009,1.297 -0.817,0.303 -0.79,0.339 0.77,1.029 0.889,0.394 1.618,0.869 1.618,1.057 0,0.187 -0.732,0.442 -1.627,0.567 -2.757,0.383 -7.41,1.439 -8.659,1.965 l -1.188,0.501 1.37,0.238 c 0.753,0.131 2.063,0.489 2.911,0.797 l 1.542,0.559 -1.199,0.293 c -3.363,0.822 -6.264,1.851 -8.734,3.098 -3.015,1.521 -3.035,1.351 0.256,2.097 1.36,0.308 1.159,0.763 -0.45,1.02 -3.072,0.492 -12.307,4.409 -12.307,5.22 0,0.09 0.886,0.07 1.969,-0.05 1.084,-0.117 2.323,-0.08 2.754,0.08 0.715,0.271 0.503,0.484 -2.398,2.417 -3.945,2.628 -5.288,3.74 -4.938,4.089 0.149,0.149 1.491,0.326 2.982,0.394 1.493,0.07 2.713,0.255 2.713,0.414 0,0.161 -1.117,0.94 -2.482,1.732 -1.366,0.792 -3.409,2.091 -4.539,2.885 -2.53,1.78 -5.39,3.24 -6.345,3.24 -1.192,0 -0.475,0.542 1.796,1.358 2.812,1.01 2.987,1.224 1.413,1.735 -1.344,0.436 -7.407,3.421 -8.338,4.105 -0.384,0.282 0,0.326 1.542,0.177 1.13,-0.116 2.496,-0.08 3.033,0.08 l 0.978,0.277 -1.834,0.985 c -2.118,1.139 -6.543,4.33 -6.317,4.555 0.09,0.09 1.235,-0.09 2.557,-0.393 1.321,-0.301 2.526,-0.543 2.678,-0.538 0.151,0 -0.409,0.619 -1.245,1.363 -0.837,0.745 -1.442,1.431 -1.347,1.527 0.09,0.09 3.322,-0.356 7.172,-1.004 14.354,-2.411 27.762,-3.95 34.418,-3.95 1.823,0 2.472,-0.169 3.827,-0.998 3.624,-2.22 9.589,-3.341 14.818,-2.787 3.179,0.336 4.11,0.591 4.11,1.126 0,0.216 -0.525,0.265 -1.374,0.129 -5.455,-0.872 -11.095,-0.332 -14.723,1.407 l -1.884,0.904 2.055,0.268 c 1.13,0.147 4.422,0.51 7.315,0.805 10.455,1.069 20.5,3.208 26.287,5.6 1.299,0.537 4.02,1.847 6.048,2.912 2.027,1.066 4.012,1.937 4.41,1.937 0.398,0 3.284,-0.258 6.416,-0.572 z m -60.361,-12.415 c 2.304,-2.097 6.796,-4.281 11.083,-5.388 3.442,-0.888 9.739,-0.814 13.126,0.153 3.824,1.093 6.228,2.408 5.582,3.054 -0.103,0.103 -1.096,-0.206 -2.195,-0.698 -3.586,-1.61 -6.22,-2.031 -11.546,-1.847 -3.941,0.136 -5.223,0.317 -7.193,1.012 -2.815,0.994 -5.596,2.36 -7.596,3.732 -1.843,1.264 -2.655,1.252 -1.261,-0.01 z m 147.226,-0.756 c -2.066,-1.364 -5.593,-3.007 -7.736,-3.604 -1.68,-0.468 -3.484,-0.613 -7.676,-0.62 -5.998,-0.01 -7.605,0.3 -11.765,2.275 -1.471,0.699 -2.288,0.92 -2.523,0.684 -0.522,-0.521 4.867,-2.976 8.053,-3.668 4.057,-0.882 11.462,-0.579 15.091,0.616 2.774,0.913 7.936,3.788 8.244,4.591 0.246,0.64 -0.481,0.521 -1.688,-0.274 z m -151.213,-2.652 c 0,-1.088 9.48,-5.572 12.523,-5.923 2.093,-0.242 1.237,0.538 -1.562,1.422 -3.288,1.039 -6.67,2.528 -8.813,3.883 -1.497,0.945 -2.148,1.133 -2.148,0.618 z m 35.71,-1.734 c -1.73,-1.064 -5.061,-2.331 -9.651,-3.672 -0.341,-0.104 -0.378,-0.249 -0.129,-0.504 1.056,-1.056 13.314,4.017 12.58,5.205 -0.292,0.472 -0.479,0.402 -2.807,-1.029 z m 80.74,1.036 c 0,-0.922 6.166,-3.959 10.14,-4.994 2.173,-0.566 4.736,-0.694 4.445,-0.222 -0.104,0.164 -1.148,0.486 -2.327,0.718 -3.009,0.592 -7.286,2.208 -9.569,3.615 -1.96,1.208 -2.689,1.447 -2.689,0.883 z m 37.171,-1.072 c -1.314,-0.714 -3.817,-1.791 -5.566,-2.393 -2.963,-1.022 -3.455,-1.313 -2.998,-1.77 0.587,-0.588 12.15,4.396 12.15,5.238 0,0.581 -1.203,0.221 -3.586,-1.075 z m -112.442,-1.148 c -1.18,-0.998 -3.151,-2.401 -4.378,-3.118 -2.515,-1.471 -2.923,-1.887 -1.851,-1.887 1.341,0 9.16,5.51 9.002,6.345 -0.129,0.683 -0.707,0.404 -2.773,-1.34 z m 71.161,1.351 c 0,-0.851 7.216,-6.699 8.265,-6.699 0.86,0 0.05,1.006 -1.702,2.141 -1.096,0.706 -2.93,2.132 -4.075,3.168 -2.225,2.014 -2.488,2.161 -2.488,1.39 z m -101.379,-7.852 c 0,-0.942 6.534,-2.264 11.216,-2.269 2.152,0 2.826,0.103 2.826,0.462 0,0.356 -1.02,0.513 -4.366,0.669 -2.715,0.13 -5.34,0.468 -6.936,0.9 -1.414,0.382 -2.607,0.698 -2.655,0.701 -0.05,0 -0.09,-0.205 -0.09,-0.463 z m 134.317,0.104 c -1.517,-0.609 -7.434,-1.634 -10.762,-1.866 -2.186,-0.152 -3.263,-0.356 -3.119,-0.59 0.354,-0.572 8.101,-0.06 11.402,0.756 2.813,0.694 3.79,1.149 3.79,1.763 0,0.366 -0.273,0.353 -1.311,-0.07 z m -31.066,-0.683 c -0.132,-0.214 -0.03,-0.595 0.228,-0.845 0.74,-0.721 5.082,-2.782 7.123,-3.384 2.25,-0.661 2.422,-0.669 2.422,-0.103 0,0.243 -0.699,0.63 -1.553,0.858 -1.794,0.48 -5.32,2.087 -6.894,3.14 -0.759,0.509 -1.156,0.609 -1.326,0.337 z m -76.365,-1.007 c -0.943,-0.556 -2.835,-1.425 -4.206,-1.927 -2.542,-0.932 -3.085,-1.293 -2.494,-1.658 0.885,-0.548 9.218,3.519 8.753,4.271 -0.264,0.426 -0.05,0.496 -2.053,-0.686 z m 4.061,-1.736 c -2.466,-2.538 -2.836,-3.061 -2.172,-3.061 0.568,0 5.133,4.466 5.133,5.023 0,0.86 -0.613,0.455 -2.961,-1.962 z m 66.664,1.804 c 0,-0.623 5.451,-5.207 6.192,-5.207 0.748,0 0.143,0.711 -2.571,3.022 -2.69,2.291 -3.621,2.853 -3.621,2.185 z m -64.281,-5.17 c -2.29,-2.171 -4.835,-3.691 -9.869,-5.894 l -1.028,-0.449 0.902,-0.117 c 1.122,-0.149 4.377,1.151 6.833,2.728 2.722,1.748 6.137,4.806 6.137,5.496 0,0.33 -0.117,0.593 -0.258,0.585 -0.141,-0.01 -1.363,-1.064 -2.717,-2.346 z m 62.707,1.621 c -0.777,-1.256 9.703,-8.165 12.384,-8.165 1.113,0 0.245,0.757 -1.913,1.669 -2.761,1.166 -5.741,3.053 -8.27,5.237 -1.358,1.171 -2.021,1.551 -2.201,1.259 z m -52.94,-0.603 c -0.286,-0.789 -4.907,-5.851 -6.285,-6.882 -0.844,-0.633 -1.535,-1.275 -1.535,-1.43 0,-0.605 1.137,-0.222 2.436,0.821 1.587,1.275 6.469,6.887 6.469,7.434 0,0.451 -0.925,0.499 -1.085,0.05 z m -50.974,-0.688 c 0,-0.903 9.315,-3.45 12.613,-3.45 3.072,0 2.308,0.467 -1.845,1.126 -1.895,0.3 -4.916,1.019 -6.714,1.595 -3.513,1.125 -4.054,1.222 -4.054,0.729 z m 145.442,-0.75 c -2.401,-0.879 -5.82,-1.668 -9.557,-2.204 -0.707,-0.104 -1.284,-0.332 -1.284,-0.512 0,-1.305 11.971,1.322 14.098,3.094 0.749,0.624 0.757,0.665 0.116,0.637 -0.376,-0.01 -1.893,-0.474 -3.372,-1.015 z m -50.228,-1.333 c 0,-0.19 1.161,-1.563 2.582,-3.05 3.057,-3.2 7.434,-6.373 8.307,-6.019 0.537,0.216 0.531,0.268 -0.07,0.629 -2.143,1.296 -6.216,4.62 -8.016,6.546 -1.985,2.122 -2.804,2.674 -2.804,1.894 z m -21.67,-0.545 c -0.137,-0.139 -0.261,-0.726 -0.274,-1.306 -0.01,-0.582 -0.157,-1.365 -0.318,-1.741 -0.259,-0.604 -0.298,-0.57 -0.319,0.277 -0.04,1.425 -0.554,0.871 -2.132,-2.273 -0.771,-1.54 -2.185,-3.785 -3.14,-4.989 -0.957,-1.204 -1.437,-2.026 -1.071,-1.826 1.546,0.841 4.093,3.863 5.406,6.412 0.85,1.652 0.881,1.675 0.897,0.655 0,-0.583 -0.21,-1.808 -0.485,-2.725 -0.793,-2.632 -0.25,-2.323 1.479,0.839 l 0.966,1.764 0.541,-1.378 c 0.795,-2.024 1.281,-1.736 1.285,0.76 v 2.141 l 1.209,-2.422 c 1.101,-2.207 4.668,-6.365 5.094,-5.938 0.09,0.09 -0.391,0.85 -1.068,1.692 -0.677,0.841 -2.078,3.302 -3.112,5.469 l -1.881,3.939 -0.441,-1.199 c -0.242,-0.66 -0.465,-1.662 -0.495,-2.226 l -0.05,-1.028 -0.532,1.199 c -0.294,0.659 -0.708,1.864 -0.921,2.677 -0.213,0.813 -0.499,1.364 -0.638,1.227 z m 15.029,-0.565 c 1.235,-2.119 7.951,-8.477 8.953,-8.477 0.863,0 0.37,0.628 -2.227,2.831 -1.46,1.239 -3.496,3.113 -4.526,4.163 -1.743,1.779 -2.781,2.479 -2.2,1.483 z m -33.594,-2.643 c -0.518,-0.747 -2.312,-2.678 -3.986,-4.292 -1.673,-1.615 -3.044,-3.006 -3.044,-3.094 0,-0.09 0.246,-0.161 0.545,-0.161 1.208,0 6.595,5.493 7.98,8.135 0.72,1.375 -0.457,0.911 -1.495,-0.588 z m 10.834,-2.195 c -2.255,-3.996 -6.778,-7.862 -11.872,-10.146 -1.722,-0.773 -2.238,-1.151 -1.956,-1.432 0.43,-0.43 4.914,1.588 7.578,3.41 3.42,2.337 6.89,6.49 7.721,9.238 0.427,1.413 -0.417,0.799 -1.471,-1.07 z m 15.358,0.892 c 0,-0.334 0.578,-1.587 1.285,-2.786 2.273,-3.856 8.605,-9.1 14.298,-11.842 2.681,-1.291 4.967,-1.857 4.967,-1.232 0,0.215 -0.193,0.458 -0.428,0.54 -2.971,1.033 -4.627,1.774 -6.618,2.969 -5.163,3.098 -9.725,7.232 -11.946,10.831 -0.721,1.17 -1.367,2.127 -1.435,2.127 -0.06,0 -0.129,-0.273 -0.129,-0.607 z m -66.724,-1.701 c -1.22,-0.09 -1.773,-0.262 -1.68,-0.536 0.104,-0.293 1.161,-0.378 3.705,-0.299 3.834,0.116 4.762,0.269 4.762,0.769 0,0.305 -2.925,0.334 -6.787,0.06 z m 112.619,0 c 0,-0.444 1.351,-0.692 5.394,-0.985 2.804,-0.204 3.169,-0.166 3.169,0.332 0,0.411 -0.312,0.563 -1.147,0.563 -0.631,0 -2.557,0.104 -4.281,0.223 -2.082,0.148 -3.135,0.104 -3.135,-0.133 z m -103.264,-5.459 c -1.282,-0.316 -4.015,-0.526 -7.277,-0.559 -4.828,-0.05 -5.974,-0.218 -4.744,-0.689 2.844,-1.091 14.591,0 14.591,1.349 0,0.549 0.09,0.553 -2.57,-0.104 z m 99.154,-0.09 c 0,-0.839 7.957,-1.969 11.093,-1.576 2.858,0.356 2.324,0.875 -0.905,0.877 -1.553,0 -4.353,0.232 -6.219,0.513 -4.013,0.606 -3.969,0.603 -3.969,0.186 z m -20.207,-3.883 c 0,-1.56 11.514,-6.03 13.536,-5.254 0.842,0.323 0.251,0.901 -0.919,0.901 -1.536,0 -6.941,1.896 -9.818,3.444 -2.828,1.522 -2.799,1.513 -2.799,0.909 z m -73.98,-1.253 c -1.413,-0.501 -2.8,-0.997 -3.083,-1.102 -0.282,-0.103 -0.398,-0.317 -0.255,-0.468 0.502,-0.539 7.448,1.571 7.448,2.262 0,0.512 -1.36,0.283 -4.11,-0.692 z m 16.098,-0.03 c -2.554,-1.355 -7.603,-2.973 -10.2,-3.267 -1.172,-0.132 -2.131,-0.365 -2.131,-0.516 0,-0.934 3.686,-0.524 7.852,0.876 2.989,1.004 6.954,2.973 7.145,3.548 0.211,0.635 -0.656,0.427 -2.666,-0.641 z m 72.345,0.604 c 0.152,-0.481 4.137,-1.914 5.709,-2.05 2.061,-0.18 1.157,0.551 -1.849,1.496 -3.455,1.086 -4.055,1.172 -3.86,0.554 z m -172.269,49.016 1.284,-0.321 v -2.299 c 0,-4.991 1.772,-9.282 5.383,-13.116 3.626,-3.851 7.671,-5.433 13.926,-5.446 3.405,-0.01 3.346,0.03 4.879,-2.894 1.073,-2.048 1.048,-2.075 -3.05,-3.451 -6.522,-2.192 -11.517,-1.313 -16.931,2.976 -5.181,4.107 -8.557,10.899 -8.921,17.95 -0.104,1.9 -0.06,4.328 0.07,5.394 0.27,2.162 -0.03,2.054 3.362,1.207 z m 259.418,-0.552 c 0.473,-1.8 0.246,-8.383 -0.365,-10.646 -2.094,-7.743 -7.681,-14.257 -14.195,-16.551 -2.963,-1.043 -7.011,-0.955 -10.584,0.232 -4.159,1.381 -4.103,1.296 -2.569,3.933 l 1.294,2.225 3.759,0.212 c 2.426,0.136 4.444,0.457 5.69,0.902 2.473,0.884 5.654,3.048 7.403,5.035 2.915,3.312 5.065,8.952 4.82,12.652 l -0.116,1.689 2.055,0.589 c 1.13,0.324 2.167,0.607 2.306,0.629 0.137,0.03 0.361,-0.383 0.497,-0.901 z m -129.188,281.386 c -0.288,-0.748 1.157,-4.392 1.742,-4.392 0.649,0 0.622,0.264 -0.254,2.437 -0.891,2.214 -1.222,2.648 -1.488,1.955 z m 26.341,-5.335 c -0.104,-0.33 -0.588,-1.483 -1.078,-2.564 -0.891,-1.964 -0.874,-2.771 0.04,-2.012 0.462,0.384 1.585,2.758 2.085,4.406 0.175,0.574 0.09,0.77 -0.315,0.77 -0.3,0 -0.63,-0.269 -0.732,-0.6 z m -54.247,-0.999 c 0,-3.896 2.221,-9.991 3.254,-8.959 0.08,0.08 -0.228,1.065 -0.682,2.192 -0.455,1.126 -1.031,3.264 -1.278,4.752 -0.444,2.661 -1.298,3.992 -1.294,2.015 z m 41.926,-8.419 c 0.95,-3.263 1.525,-5.93 1.735,-8.049 0.176,-1.781 0.38,-2.483 0.725,-2.483 0.325,0 0.477,0.412 0.476,1.284 0,3.594 -1.697,10.018 -2.634,10.018 -0.383,0 -0.465,-0.208 -0.302,-0.77 z m 39.592,0.33 c -2.517,-1.273 -2.187,-6.018 0.74,-10.639 1.476,-2.33 8.516,-9.551 10.898,-11.177 2.772,-1.892 6.278,-5.761 9.763,-10.772 5.247,-7.545 10.81,-12.659 16.843,-15.482 6.582,-3.08 13.111,-2.809 17.993,0.745 1.563,1.138 2.925,2.752 2.599,3.079 -0.09,0.09 -1.249,-0.4 -2.582,-1.084 -2.151,-1.104 -2.79,-1.262 -5.674,-1.413 -3.221,-0.169 -5.72,0.06 -5.72,0.537 0,0.134 1.002,0.604 2.226,1.043 1.225,0.439 2.573,1.102 2.998,1.473 l 0.77,0.675 -1.712,-0.277 c -0.943,-0.153 -3.177,-0.273 -4.967,-0.268 -5.509,0.01 -10.34,1.769 -5.094,1.849 2.04,0.03 3.724,0.371 3.724,0.753 0,0.164 -0.445,0.299 -0.989,0.299 -1.514,0 -6.872,1.646 -8.6,2.643 -3.495,2.014 -5.83,4.247 -8.656,8.279 -3.389,4.834 -6.276,7.772 -10.364,10.546 -4.902,3.326 -7.011,5.73 -7.011,7.99 0,0.391 0.694,1.452 1.542,2.358 0.848,0.907 1.54,1.885 1.54,2.174 0,0.599 -3.662,3.653 -6.856,5.718 -2.435,1.574 -2.272,1.528 -3.411,0.951 z m -111.658,-0.634 c -1.884,-1.149 -5.83,-4.32 -6.612,-5.314 l -0.711,-0.904 0.879,-0.721 c 1.83,-1.5 2.484,-4.094 1.502,-5.961 -0.804,-1.526 -3.587,-3.963 -7.253,-6.352 -4.059,-2.642 -6.521,-5.163 -10.047,-10.283 -3.167,-4.599 -5.46,-6.687 -9.442,-8.595 -3.688,-1.769 -5.474,-2.228 -8.799,-2.266 l -2.503,-0.03 1.159,-0.506 c 0.638,-0.277 2.462,-0.596 4.054,-0.709 2.861,-0.202 2.88,-0.21 1.757,-0.682 -0.627,-0.263 -2.605,-0.728 -4.396,-1.032 -2.734,-0.463 -3.756,-0.488 -6.342,-0.154 -1.694,0.219 -3.429,0.493 -3.852,0.61 -0.425,0.116 -0.772,0.08 -0.772,-0.09 0,-0.575 1.978,-1.481 5.02,-2.299 2.967,-0.797 3.002,-0.819 1.741,-1.065 -0.708,-0.139 -2.866,-0.19 -4.794,-0.117 -3.771,0.147 -5.652,0.774 -9.257,3.086 -0.902,0.579 -1.735,0.958 -1.849,0.843 -0.31,-0.311 1.423,-2.66 2.71,-3.672 3.328,-2.619 6.766,-3.805 10.986,-3.793 6.675,0.03 12.938,2.765 19.817,8.686 2.978,2.563 5.663,5.908 9.704,12.086 3.55,5.427 4.604,6.486 8.324,8.36 3.419,1.723 5.776,3.63 8.696,7.035 3.161,3.686 4.788,7.05 4.999,10.33 0.149,2.31 0.104,2.535 -0.724,3.359 -1.087,1.086 -2.384,1.136 -3.995,0.153 z m 95.064,-5.155 c -0.08,-0.247 -0.329,-1.297 -0.558,-2.333 -0.229,-1.036 -0.781,-2.61 -1.225,-3.499 -0.827,-1.651 -1.029,-2.666 -0.53,-2.666 0.758,0 3.145,5.746 3.145,7.569 0,1.016 -0.594,1.681 -0.832,0.929 z m -78.038,-1.859 c -0.346,-0.344 1.353,-4.468 2.632,-6.392 0.654,-0.984 1.721,-2.303 2.37,-2.931 1.755,-1.697 1.932,-0.706 0.221,1.234 -0.786,0.892 -2.145,3.118 -3.02,4.948 -1.562,3.26 -1.777,3.567 -2.203,3.141 z m -9.364,-5.425 c -0.247,-0.643 1.11,-4.448 1.787,-5.01 0.891,-0.739 0.882,0.518 -0.01,2.45 -0.475,1.024 -0.867,2.044 -0.868,2.268 0,0.664 -0.676,0.88 -0.901,0.292 z m 99.781,-1.072 c -9.257,-1.673 -23.193,-9.889 -31.439,-18.534 -4.264,-4.471 -8.261,-10.119 -10.804,-15.268 -1.294,-2.622 -1.332,-2.659 -2.349,-2.398 -0.568,0.148 -3.345,0.262 -6.171,0.255 -4.587,-0.01 -5.319,-0.09 -6.845,-0.788 -0.94,-0.426 -2.045,-1.091 -2.458,-1.478 -0.412,-0.387 -0.91,-0.605 -1.107,-0.484 -0.195,0.116 -1.5,1.949 -2.898,4.06 -1.4,2.112 -3.564,5.032 -4.813,6.49 -10.026,11.705 -27.418,20.246 -41.309,20.287 -3.779,0.01 -4.042,-0.04 -6.233,-1.116 -4.565,-2.248 -7.498,-7.326 -9.043,-15.656 -0.657,-3.556 -0.982,-11.566 -0.543,-13.443 0.315,-1.346 0.262,-1.562 -0.712,-2.907 -1.644,-2.269 -2.299,-4.879 -2.299,-9.16 0,-9.484 2.545,-23.638 5.352,-29.774 2.264,-4.946 5.05,-6.436 11.397,-6.098 12.182,0.65 27.191,6.886 38.564,16.025 3.999,3.213 8.153,7.284 10.198,9.991 l 1.79,2.372 2.739,-0.287 c 4.004,-0.415 10.805,-0.252 14.702,0.354 l 3.399,0.528 3.118,-2.98 c 5.304,-5.068 10.268,-8.481 17.02,-11.702 9.614,-4.585 21.275,-6.82 30.748,-5.894 5.655,0.554 7.304,1.149 9.646,3.473 2.071,2.055 3.002,4.006 4.009,8.403 0.804,3.505 0.786,18.411 -0.03,22.232 -0.713,3.357 -2.304,6.835 -3.857,8.433 -1.089,1.118 -1.153,1.299 -0.838,2.394 1.565,5.455 -2.214,20.016 -6.714,25.877 -0.736,0.958 -2.68,2.999 -4.323,4.538 -3.355,3.145 -3.207,3.103 -7.901,2.255 z m -9.226,-37.53 c -0.16,-0.486 -5.522,-1.788 -16.705,-4.059 -8.477,-1.721 -10.276,-1.965 -10.276,-1.392 0,0.341 1.492,0.705 10.618,2.589 3.297,0.679 7.921,1.679 10.275,2.218 4.751,1.09 6.293,1.253 6.088,0.644 z m -34.375,-2.94 c 0.104,-0.519 0.356,-2.715 0.552,-4.882 0.197,-2.165 0.514,-4.928 0.704,-6.137 0.29,-1.836 0.262,-2.283 -0.173,-2.719 -0.288,-0.286 -0.617,-0.426 -0.732,-0.311 -0.116,0.117 -0.411,2.73 -0.659,5.812 -0.248,3.081 -0.626,6.256 -0.841,7.056 -0.216,0.799 -0.299,1.604 -0.185,1.788 0.405,0.655 1.143,0.32 1.334,-0.607 z m -16.956,-2.57 c 0.334,-0.884 0.926,-5.294 1.261,-9.418 0.223,-2.726 0.206,-2.826 -0.498,-2.826 -0.653,0 -0.729,0.192 -0.729,1.825 0,1.819 -0.553,8.461 -0.853,10.249 -0.189,1.131 0.408,1.256 0.819,0.17 z m -29.25,-0.428 c 3.203,-0.275 9.406,-0.603 13.785,-0.731 6.734,-0.197 7.964,-0.312 7.964,-0.745 0,-0.446 -1.106,-0.484 -8.649,-0.295 -4.755,0.117 -11.036,0.449 -13.957,0.733 -2.919,0.285 -5.424,0.518 -5.565,0.52 -0.141,0 -0.258,0.236 -0.258,0.518 0,0.616 -0.49,0.616 6.68,0 z m 25.504,-8.524 c -0.276,-0.262 -3.815,-1.557 -7.865,-2.878 -18.745,-6.114 -26.69,-8.634 -27.224,-8.634 -0.317,0 -0.513,0.189 -0.437,0.419 0.195,0.584 33.411,11.48 35.183,11.539 0.733,0.03 0.778,-0.04 0.343,-0.446 z m 37.577,-2.106 c 8.123,-2.025 20.195,-5.176 20.973,-5.475 0.299,-0.116 0.364,-0.308 0.167,-0.503 -0.424,-0.426 -2.92,0.116 -15.893,3.438 -13.449,3.447 -15.755,4.11 -15.755,4.525 0,0.5 2.217,0.08 10.508,-1.985 z m -48.278,52.034 c -0.456,-0.456 2.488,-6.326 3.66,-7.3 1.173,-0.972 1.136,0.104 -0.06,1.97 -0.699,1.085 -1.643,2.776 -2.1,3.756 -0.808,1.738 -1.06,2.005 -1.493,1.574 z m 40.706,-6.04 c -1.119,-3.826 -1.212,-4.71 -0.495,-4.71 0.364,0 1.72,4.435 1.477,4.829 -0.276,0.446 -0.836,0.379 -0.982,-0.117 z m -23.916,-2.384 c -1.495,-2.568 -3.337,-6.401 -3.337,-6.942 0,-1.224 0.753,-0.286 2.689,3.348 2.287,4.295 2.449,4.715 1.891,4.921 -0.214,0.08 -0.773,-0.517 -1.243,-1.327 z m 84.537,-18.832 c -0.298,-0.622 -1.464,-2.288 -2.592,-3.702 -1.946,-2.437 -2.447,-3.425 -1.739,-3.425 0.741,0 5.98,6.97 5.752,7.653 -0.261,0.784 -0.91,0.544 -1.421,-0.526 z m -162.197,-4.498 c 0,-0.738 2.71,-3.953 5.212,-6.185 2.197,-1.96 2.666,-2.229 2.666,-1.525 0,0.365 -7.031,7.845 -7.62,8.108 -0.141,0.06 -0.258,-0.117 -0.258,-0.398 z m -43.497,-1.046 c 0,-1.42 11.375,-8.775 13.572,-8.775 1.016,0 0.375,0.605 -1.66,1.564 -2.431,1.147 -7.417,4.332 -9.181,5.865 -1.698,1.476 -2.731,1.984 -2.731,1.346 z m 210.709,-9.79 c -0.429,-0.934 -1.314,-2.266 -1.968,-2.959 -1.275,-1.351 -1.466,-1.848 -0.713,-1.848 1.043,0 4.321,4.535 4.321,5.98 0,1.098 -0.891,0.462 -1.64,-1.173 z m 27.841,-1.997 c -1.131,-1.085 -2.883,-2.685 -3.895,-3.556 -1.061,-0.914 -1.738,-1.746 -1.602,-1.966 0.325,-0.525 1.627,0.446 5.351,3.99 2.647,2.519 3.353,3.536 2.437,3.51 -0.13,0 -1.161,-0.893 -2.291,-1.978 z m -215.52,0.872 c 0.393,-1.198 6.589,-5.025 7.181,-4.435 0.239,0.241 -0.13,0.644 -1.144,1.274 -0.822,0.508 -2.43,1.522 -3.574,2.256 -2.209,1.417 -2.687,1.591 -2.463,0.905 z m 201.708,-1.658 c -0.439,-0.768 -1.332,-1.987 -1.983,-2.709 -1.345,-1.489 -0.979,-2.304 0.439,-0.978 1.298,1.215 3.197,3.907 3.197,4.534 0,1.004 -0.842,0.572 -1.653,-0.847 z m -185.008,-1.098 c 0,-0.243 0.733,-0.994 1.628,-1.667 2.222,-1.674 3.17,-2.135 3.567,-1.737 0.206,0.206 -0.294,0.723 -1.358,1.406 -0.925,0.594 -1.96,1.386 -2.299,1.76 -0.699,0.773 -1.538,0.902 -1.538,0.238 z m -26.65,-0.669 c 0.134,-0.475 7.438,-4.206 8.927,-4.559 1.506,-0.36 1.203,0.739 -0.344,1.24 -0.705,0.229 -2.784,1.166 -4.617,2.082 -3.476,1.735 -4.169,1.952 -3.966,1.237 z m 104.945,-24.521 c -0.435,-0.703 1.376,-5.635 1.992,-5.429 0.507,0.169 0.475,0.388 -0.475,3.235 -0.79,2.366 -1.119,2.84 -1.517,2.194 z m -9.536,-4.703 c -0.73,-0.73 3.094,-8.023 4.208,-8.023 0.551,0 0.379,0.518 -0.852,2.563 -0.65,1.078 -1.526,2.792 -1.947,3.81 -0.739,1.782 -0.987,2.072 -1.409,1.65 z m 19.024,-5.837 c 0.117,-2 0.28,-3.711 0.372,-3.802 0.517,-0.517 0.894,0.573 0.891,2.578 0,3.244 -0.321,4.861 -0.948,4.861 -0.447,0 -0.492,-0.521 -0.315,-3.637 z m 10.018,3.208 c -0.545,-1.768 -1.559,-5.367 -1.559,-5.533 0,-0.116 0.218,-0.203 0.482,-0.203 0.55,0 1.916,3.71 1.916,5.204 0,0.962 -0.591,1.337 -0.839,0.532 z m 26.368,-3.362 c -1.688,-1.494 -3.189,-2.717 -3.339,-2.717 -0.149,0 -0.271,-0.232 -0.271,-0.514 0,-0.817 0.669,-0.607 2.362,0.741 3.477,2.767 5.722,5.333 4.574,5.231 -0.141,-0.01 -1.638,-1.247 -3.326,-2.741 z m -60.121,-0.345 c 0,-0.736 3.262,-5.12 3.743,-5.031 0.72,0.134 0.603,0.421 -1.224,3.013 -1.521,2.155 -2.519,2.955 -2.519,2.018 z m -14.223,-2.386 c -0.308,-0.498 0.827,-1.675 3.853,-3.993 1.681,-1.288 2.66,-1.824 3.055,-1.673 0.655,0.251 0.713,0.186 -2.104,2.362 -1.13,0.874 -2.62,2.06 -3.312,2.636 -0.817,0.682 -1.34,0.915 -1.492,0.668 z m 56.758,-2.194 c -1.068,-1.333 -1.626,-2.298 -1.406,-2.434 0.45,-0.278 1.785,0.936 3.076,2.8 0.877,1.267 0.978,1.842 0.323,1.842 -0.129,0 -1.02,-0.994 -1.993,-2.208 z" id="path148" /></g></svg>