<?xml version='1.0' encoding='utf-8'?>
<svg xmlns="http://www.w3.org/2000/svg" width="481.45279mm" height="308.67743mm" viewBox="0 0 481.45279 308.67743" version="1.1" id="svg5" xml:space="preserve"><defs id="defs2" /><g id="layer1"><path style="fill:#000000;stroke-width:1" d="m 166.16270000000077 306.4170000000013 c -3.0542,-2.278 -6.3425,-5.512 -7.6736,-7.545 l -0.7182,-1.098 -0.9113,3.783 c -0.5003,2.083 -0.983,3.86 -1.0722,3.948 -0.3496,0.35 -6.7374,-4.64 -9.1363,-7.141 -4.6531,-4.849 -7.5259,-11.133 -7.9823,-17.455 l -0.2297,-3.193 h -39.9023 c -47.1665,0 -98.5368,-0.406 -98.5368,-0.778 0,-0.301 4.2698,-0.849 15.2901,-1.956 12.4802,-1.255 21.5039,-1.29 54.53,-0.212 16.5817,0.541 30.2877,0.898 30.4588,0.793 0.1697,-0.102 1.5696,-1.884 3.1113,-3.954 1.5418,-2.069 3.6569,-4.762 4.7012,-5.987 1.0445,-1.225 1.7948,-2.226 1.6676,-2.226 -0.1316,0 -1.0766,0.608 -2.1123,1.353 -2.5875,1.859 -9.344,4.832 -9.344,4.114 0,-0.372 8.3319,-7.484 14.278,-12.188 2.3857,-1.887 4.2697,-3.501 4.1864,-3.585 -0.088,-0.09 -1.6252,0.541 -3.4273,1.384 -3.4302,1.608 -10.0374,3.686 -10.8536,3.415 -0.2618,-0.09 1.6076,-1.625 4.1527,-3.419 6.9803,-4.916 19.5292,-15.084 19.5292,-15.823 0,-0.146 -3.3511,-1.717 -7.4497,-3.504 -4.0972,-1.788 -8.1256,-3.635 -8.9506,-4.104 l -1.5008,-0.852 2.8553,-0.619 c 5.8993,-1.281 53.4869,-10.292 54.3485,-10.292 0.2121,0 1.1571,1.058 2.0991,2.353 3.4418,4.727 8.7648,8.78 19.0011,14.472 11.1081,6.177 21.8462,10.051 33.4663,12.071 5.4019,0.939 17.4828,0.924 22.8174,-0.03 11.8674,-2.119 21.5171,-5.901 33.5936,-13.169 10.3621,-6.235 17.3058,-12.983 19.5277,-18.981 0.5486,-1.481 0.8074,-1.748 1.6924,-1.748 1.4481,0 15.7743,2.474 22.2587,3.844 9.2665,1.957 22.9959,4.975 27.3885,6.019 4.2113,1.001 6.1772,1.71 4.811,1.735 -0.6436,0.02 -14.0629,6.549 -16.5379,8.055 l -1.3121,0.801 3.8749,2.507 c 2.1327,1.377 6.4668,4.023 9.6337,5.878 7.6033,4.455 11.272,6.854 10.7512,7.032 -0.3438,0.117 -5.5512,-1.675 -9.2504,-3.186 -1.2799,-0.522 2.9313,2.908 11.1988,9.124 2.5408,1.909 4.4497,3.472 4.242,3.472 -0.4564,0 -9.7976,-3.371 -13.2818,-4.792 -1.3677,-0.558 -2.5569,-1.014 -2.6432,-1.014 -0.088,0 1.2931,1.614 3.066,3.587 1.7727,1.971 5.4004,6.188 8.0611,9.366 2.6608,3.18 5.5585,6.565 6.4391,7.523 l 1.6016,1.742 10.3958,-0.493 c 5.718,-0.272 13.2702,-0.643 16.7822,-0.825 3.5121,-0.183 17.357,-0.544 30.7675,-0.805 24.0798,-0.468 24.4674,-0.463 31.1552,0.359 13.1662,1.619 24.3825,3.275 24.3825,3.6 0,0.181 -36.2177,0.329 -80.482,0.329 h -80.4835 l -0.2179,1.451 c -1.0576,7.026 -2.6768,11.051 -6.1201,15.21 -1.9704,2.378 -8.9199,8.107 -9.8342,8.107 -0.2296,0 -0.6202,-1.174 -0.8703,-2.612 -0.8572,-4.94 -0.6729,-4.719 -2.1341,-2.549 -0.711,1.057 -2.203,2.812 -3.3161,3.902 -2.0566,2.015 -8.0276,6.509 -8.2923,6.243 -0.088,-0.09 -0.8499,-1.6 -1.7086,-3.379 -1.6426,-3.396 -2.9694,-8.336 -2.6651,-9.927 0.1463,-0.737 -0.6714,-0.15 -3.7768,2.725 -2.1751,2.014 -4.1396,3.662 -4.3663,3.662 -0.4841,0 -1.7685,-3.282 -2.8758,-7.353 -0.6011,-2.215 -0.7943,-4.141 -0.8147,-8.127 -0.03,-5.011 0.03,-5.354 1.2243,-8.378 2.4311,-6.123 6.2167,-10.54 11.5045,-13.418 3.0893,-1.681 1.8987,-1.511 -1.5709,0.225 -3.4682,1.736 -7.1339,5.652 -9.0223,9.642 -0.8396,1.772 -1.6398,3.555 -1.7787,3.961 -0.2473,0.725 -0.9127,0.736 -29.3311,0.484 -15.9937,-0.146 -35.9924,-0.256 -44.4428,-0.256 h -15.3661 l -0.8236,-2.263 c -1.0312,-2.826 -2.4501,-4.955 -5.105,-7.662 -2.0859,-2.126 -5.5409,-4.464 -7.3328,-4.96 -0.5325,-0.147 0.1726,0.431 1.5652,1.283 5.2922,3.241 9.0544,7.904 11.0218,13.658 0.999,2.926 1.1015,3.711 1.0824,8.264 -0.03,5.326 -0.9829,10.228 -2.8128,14.363 l -0.8089,1.831 -1.2507,-1.122 c -0.6875,-0.618 -2.4267,-2.254 -3.8631,-3.636 l -2.6125,-2.514 v 1.186 c 0,2.731 -3.3439,12.534 -4.2756,12.534 -0.1653,0 -1.6661,-1.019 -3.3336,-2.263 z m -8.8687,-20.578 c -0.724,-4.293 -2.2863,-9.346 -3.2458,-10.497 -0.9611,-1.154 -0.964,-0.992 -0.03,1.463 0.4155,1.094 1.2068,3.795 1.7583,5.998 1.8285,7.318 2.4501,8.559 1.5183,3.036 z m 131.7749,-2.318 c 0.7269,-2.921 1.8869,-6.255 2.9255,-8.417 0.9464,-1.969 1.65,-3.58 1.5622,-3.58 -0.4286,0 -2.7105,3.83 -3.5384,5.936 -1.1951,3.046 -3.025,11.814 -2.3082,11.06 0.088,-0.09 0.6963,-2.338 1.3589,-4.999 z m -118.0235,1.26 c -0.7548,-3.999 -1.7174,-6.827 -3.2693,-9.601 -0.7855,-1.404 -1.5008,-2.481 -1.5886,-2.392 -0.088,0.09 0.4257,1.451 1.1425,3.028 0.7182,1.577 1.8854,5.029 2.5963,7.669 1.3458,5.011 1.9528,5.712 1.1191,1.296 z m 132.7081,-0.873 c 0.4359,-1.81 1.2242,-4.552 1.7553,-6.095 0.5309,-1.544 0.8908,-2.806 0.8015,-2.806 -0.088,0 -0.6143,0.888 -1.1643,1.972 -1.0737,2.121 -2.2425,6.32 -2.6272,9.445 -0.3349,2.719 0.278,1.471 1.2347,-2.516 z m -81.7971,-46.625 c -9.113,-1.453 -20.5853,-6.255 -30.0083,-12.558 -5.2309,-3.499 -6.6438,-4.69 -3.4697,-2.922 3.4345,1.911 6.2737,3.201 9.4479,4.291 8.6683,2.977 20.3293,3.32 27.5129,0.808 l 1.5476,-0.542 0.1171,-2.918 c 0.1316,-3.351 -0.335,-4.166 -2.3727,-4.166 -4.2478,0 -12.4991,-3.817 -16.5861,-7.673 -8.62,-8.132 -9.2958,-18.631 -1.6821,-26.124 2.5715,-2.53 4.906,-3.813 9.2182,-5.062 7.463,-2.162 16.6856,-2.165 24.153,-0.02 4.3516,1.258 6.2824,2.393 9.439,5.552 4.0958,4.099 5.7135,8.474 4.9486,13.383 -1.0693,6.867 -7.2962,14.037 -15.3721,17.702 -1.9103,0.868 -8.0934,2.541 -9.6483,2.611 -0.058,0 -0.058,1.529 0,3.393 l 0.1171,3.386 3.0966,0.94 c 2.8069,0.853 3.7987,0.944 10.643,0.967 8.2089,0.03 10.7833,-0.341 17.6305,-2.522 5.6009,-1.782 12.4305,-5.563 18.1689,-10.055 0.8513,-0.666 -0.1025,0.385 -2.1006,2.335 -4.7393,4.609 -9.2344,7.954 -14.528,10.817 -7.9194,4.28 -16.3668,7.299 -23.4289,8.371 -4.4336,0.675 -12.5884,0.67 -16.8348,-0.02 z m -4.5872,-29.277 c 0.7738,-0.643 0.5544,-3.411 -0.4359,-5.494 -1.1819,-2.487 -5.0992,-5.947 -5.8641,-5.18 -0.1025,0.102 0.3437,0.946 0.9932,1.874 1.2828,1.834 1.7962,3.705 1.2448,4.535 -0.1932,0.289 -1.1556,0.617 -2.14,0.728 -0.9845,0.117 -1.7832,0.308 -1.7759,0.442 0.03,0.533 1.8124,2.337 3.0835,3.121 1.4789,0.911 3.7783,0.9 4.8944,-0.03 z m 24.1047,-0.132 c 1.1204,-0.579 3.123,-2.705 3.123,-3.314 0,-0.187 -1.0883,-0.391 -2.4194,-0.455 -2.3273,-0.117 -2.4238,-0.155 -2.5423,-1.195 -0.1507,-1.313 1.4204,-4.135 2.9255,-5.257 l 1.0693,-0.798 -1.0064,-0.02 c -1.3092,-0.02 -3.9407,1.906 -5.1855,3.786 -0.5397,0.816 -1.1921,2.489 -1.4495,3.719 -0.4666,2.22 -0.4608,2.247 0.607,3.166 1.2506,1.075 3.2152,1.22 4.8783,0.36 z m -6.1202,-16.467 c 6.9261,-1.004 9.4362,-1.62 9.4362,-2.315 0,-0.726 -3.0586,-2.186 -6.6658,-3.181 -2.5787,-0.713 -4.0883,-0.834 -10.5566,-0.857 -6.7082,-0.03 -7.9047,0.07 -10.776,0.855 -4.8915,1.337 -8.2792,3.255 -7.6239,4.314 0.686,1.111 10.2963,2.386 16.2862,2.16 2.3507,-0.09 6.8048,-0.527 9.8999,-0.976 z m -137.1826,34.67 c -4.0095,-1.793 -7.3606,-3.326 -7.4454,-3.413 -0.3087,-0.307 8.778,-2.226 19.576,-4.132 15.0415,-2.656 36.7253,-5.334 48.9568,-6.046 l 4.258,-0.247 0.85,2.832 c 0.9566,3.19 0.939,3.223 -1.8387,3.592 -1.0196,0.132 -7.9209,1.38 -15.3341,2.767 -7.4132,1.386 -15.8284,2.951 -18.7027,3.478 -7.7643,1.424 -16.3595,3.223 -18.4628,3.86 -3.2049,0.973 -4.1148,0.767 -11.8571,-2.691 z m 250.9203,-2.578 c -12.1774,-3.364 -46.9631,-10.415 -51.3791,-10.415 h -1.062 v -3.288 c 0,-3.248 0,-3.286 0.9684,-3.288 2.6387,0 24.3621,1.629 30.9752,2.329 10.3094,1.091 22.1402,2.807 32.3019,4.685 4.6837,0.864 9.2548,1.666 10.1603,1.78 0.904,0.117 1.6441,0.333 1.6441,0.49 0,0.157 -0.8265,0.595 -1.8386,0.976 -1.0108,0.38 -5.1021,2.318 -9.091,4.309 -3.989,1.991 -7.5595,3.602 -7.9341,3.581 -0.3744,-0.02 -2.51,-0.542 -4.7451,-1.159 z m -268.3973,-5.704 c -4.0444,-2.082 -8.3113,-4.378 -9.4815,-5.102 -2.8729,-1.778 -5.2265,-3.48 -4.7993,-3.471 0.607,0.02 7.5712,2.153 11.1184,3.418 1.8796,0.67 3.534,1.216 3.6773,1.211 0.2633,-0.02 -1.4554,-1.016 -6.3206,-3.695 l -2.7089,-1.493 1.3545,-0.246 c 6.654,-1.209 11.5162,-2.015 11.9974,-1.989 0.3204,0.02 2.497,0.527 4.8388,1.133 l 4.2567,1.103 11.9974,-0.368 c 8.5893,-0.264 16.2307,-0.232 26.8986,0.116 8.1942,0.267 18.2522,0.582 22.3494,0.698 7.3736,0.213 7.4497,0.224 7.4497,1.074 0,0.819 -0.1945,0.87 -4.3531,1.127 -18.8183,1.165 -47.8656,5.302 -64.1914,9.14 -2.6914,0.633 -5.3083,1.147 -5.813,1.14 -0.5046,0 -4.2258,-1.713 -8.2704,-3.795 z m 289.8778,-3.384 c -8.8058,-2.453 -31.0571,-5.87 -47.6037,-7.31 -5.6829,-0.497 -24.3754,-1.748 -26.1599,-1.754 -0.3877,0 -0.7972,-0.609 -1.1073,-1.648 -0.2706,-0.903 -0.9186,-2.489 -1.4423,-3.521 -0.5221,-1.032 -0.8806,-1.947 -0.7957,-2.029 0.2837,-0.284 15.4993,-1.676 22.7326,-2.08 14.196,-0.792 25.6552,-0.438 48.5706,1.504 8.31,0.705 13.2921,0.711 12.1657,0.02 -0.4827,-0.299 4.4059,-2.787 19.9579,-10.159 7.8402,-3.717 9.7594,-4.512 15.6733,-6.499 l 3.2897,-1.105 -1.5476,1.383 c -2.7836,2.483 -9.9481,7.716 -15.8065,11.541 -3.1595,2.064 -5.6857,3.805 -5.6125,3.869 0.1477,0.132 6.6862,-1.169 7.5537,-1.501 1.2418,-0.476 -0.1464,0.698 -4.4366,3.764 -8.0115,5.72 -18.4424,11.796 -23.1027,13.455 -1.6631,0.593 -1.7757,0.692 -0.7811,0.688 0.6392,0 2.1196,-0.117 3.2897,-0.269 1.1717,-0.146 2.652,-0.158 3.2898,-0.03 1.1526,0.233 1.1468,0.242 -0.9669,1.261 -2.3784,1.147 -4.1864,1.255 -7.1602,0.426 z m -215.377,-6.365 c -12.3865,-0.797 -37.6965,-1.225 -48.9889,-0.827 -9.7376,0.341 -12.0165,0.318 -13.9327,-0.132 -1.2595,-0.301 -2.9343,-0.554 -3.7198,-0.562 -0.7855,-0.02 -1.5359,-0.187 -1.6675,-0.4 -0.1317,-0.213 0.1316,-0.387 0.5807,-0.387 0.4505,0 0.7299,-0.146 0.6201,-0.323 -0.2603,-0.421 -1.4378,-0.273 -9.4098,1.179 l -6.6628,1.213 -6.303,-3.122 c -6.6087,-3.273 -12.9775,-7.297 -17.847,-11.277 -4.0621,-3.319 -7.2889,-6.314 -7.0563,-6.546 0.4578,-0.458 11.4079,4.001 20.9217,8.521 6.0455,2.869 14.2721,5.862 23.7111,8.623 3.1245,0.915 3.284,0.924 6.9657,0.376 6.1026,-0.907 28.1784,-2.826 38.2129,-3.321 8.2763,-0.41 34.0455,-0.303 34.4902,0.146 0.088,0.09 -0.117,0.923 -0.4608,1.86 -0.3393,0.939 -0.7342,2.49 -0.8776,3.449 l -0.2619,1.74 -1.9307,0.04 c -1.0635,0.03 -3.9348,-0.09 -6.3836,-0.243 z m 28.6393,-2.66 c 0,-0.445 0.9742,-0.817 2.1385,-0.817 1.1029,0 1.5783,0.604 0.7314,0.928 -0.9259,0.355 -2.8699,0.28 -2.8699,-0.117 z m -5.7779,-0.413 c -0.3964,-0.243 -0.1024,-0.458 1.0971,-0.779 2.0244,-0.545 3.3614,-0.395 2.1664,0.242 -1.2478,0.668 -2.674,0.902 -3.2635,0.537 z m 101.063,-1.559 c -1.397,-0.33 -1.8812,-0.652 -1.5228,-1.011 0.3628,-0.362 3.2298,0.229 4.0211,0.829 0.6714,0.507 0.6553,0.538 -0.2545,0.513 -0.5309,-0.02 -1.5417,-0.164 -2.2438,-0.331 z m -182.3642,-2.538 c -2.0214,-0.496 -6.5896,-1.457 -10.1515,-2.136 -3.5602,-0.679 -6.3965,-1.362 -6.3015,-1.517 0.1653,-0.264 4.1469,-0.849 9.2928,-1.363 3.3922,-0.339 4.8388,-0.625 4.8388,-0.96 0,-0.163 -0.5661,-0.409 -1.2579,-0.546 -1.5798,-0.316 -8.4181,-3.617 -8.4181,-4.065 0,-0.183 2.0464,-0.556 4.5477,-0.828 4.7173,-0.513 7.1806,-1.074 4.9338,-1.121 -3.3189,-0.07 -17.1712,-3.344 -16.5671,-3.912 0.4447,-0.419 11.2252,-1.919 13.7148,-1.91 1.1438,0 3.2107,0.169 4.5944,0.365 1.3838,0.196 7.5668,0.721 13.7396,1.167 6.1728,0.445 14.0864,1.157 17.5867,1.582 13.3447,1.618 41.0536,6.375 42.5661,7.31 0.3379,0.21 -0.088,1.16 -1.4877,3.348 -1.0765,1.681 -2.1004,3.23 -2.2745,3.443 -0.2004,0.245 -2.0083,0.293 -4.9383,0.131 -12.9292,-0.715 -30.7587,-0.253 -47.7705,1.236 -10.6429,0.932 -12.0062,0.913 -16.6476,-0.224 z m 94.4733,-3.092 c 0.6963,-0.695 3.4433,-1.238 3.4433,-0.679 0,0.371 -2.4925,1.273 -3.515,1.273 -0.4067,0 -0.3906,-0.132 0.073,-0.594 z m 74.4862,0.247 c -0.5529,-0.894 2.9182,-1.117 3.651,-0.234 0.4183,0.503 0.2209,0.581 -1.4773,0.581 -1.0781,0 -2.0566,-0.155 -2.1737,-0.347 z m -80.6781,-0.633 c 0.6948,-0.696 3.4419,-1.237 3.4419,-0.68 0,0.37 -2.4926,1.274 -3.5135,1.274 -0.4066,0 -0.3905,-0.131 0.073,-0.594 z m -5.9007,-0.302 c 0.6772,-0.825 3.1946,-1.538 3.6861,-1.047 0.3877,0.388 -0.9902,1.047 -3.0512,1.456 -1.0444,0.206 -1.1073,0.165 -0.6349,-0.409 z m 185.0497,-0.675 c -15.8532,-1.551 -25.9915,-2.026 -37.7346,-1.775 -6.1728,0.133 -13.8361,0.488 -17.0278,0.787 -17.1976,1.616 -16.8041,1.595 -17.4565,0.943 -0.5514,-0.554 -0.4901,-0.631 0.6846,-0.851 3.8704,-0.725 28.6436,-3.109 43.2827,-4.165 7.8507,-0.568 23.603,-0.643 38.4763,-0.183 12.4904,0.385 12.2169,0.278 6.9978,2.749 -7.9282,3.751 -6.4932,3.544 -17.2225,2.495 z m -89.5949,-0.544 -1.1614,-0.533 1.5709,-0.03 c 0.8646,-0.02 1.9089,0.226 2.3229,0.537 0.7138,0.542 0.6933,0.569 -0.4096,0.563 -0.6392,0 -1.6836,-0.244 -2.3228,-0.537 z m 12.7039,-4.697 -3.1653,-3.265 1.3413,-0.56 c 2.1722,-0.907 26.1423,-9.247 32.6603,-11.362 12.0999,-3.927 26.7874,-8.118 38.1208,-10.877 13.7967,-3.358 22.3391,-5.871 21.7994,-6.411 -0.1638,-0.164 -20.0734,4.671 -32.0548,7.785 -15.5871,4.05 -38.7541,11.523 -55.5377,17.915 -3.4053,1.296 -6.4536,2.353 -6.7725,2.345 -0.3189,0 -1.5389,-0.804 -2.7091,-1.771 -1.1716,-0.968 -4.5944,-3.736 -7.6077,-6.151 -6.4961,-5.206 -17.3965,-14.433 -18.5755,-15.724 -2.4179,-2.646 -3.8178,-21.978 -2.2804,-31.47 1.3808,-8.517 3.5807,-15.323 6.575,-20.335 3.3278,-5.573 3.9202,-5.805 2.5438,-0.991 -0.4213,1.475 -0.7212,2.727 -0.6656,2.783 0.058,0.06 0.8191,-0.825 1.6968,-1.959 0.8777,-1.133 2.7485,-2.885 4.1586,-3.891 2.4326,-1.736 6.2927,-3.546 6.698,-3.142 0.1023,0.103 -0.1493,0.677 -0.5618,1.276 -2.3169,3.358 -7.008,12.312 -6.6423,12.677 0.088,0.09 1.4818,-0.499 3.1098,-1.294 9.2855,-4.529 19.2513,-3.482 28.3862,2.987 1.4905,1.054 4.887,3.791 7.5478,6.082 6.2708,5.4 8.3479,6.915 11.9433,8.708 4.1191,2.055 8.6375,3.152 13.9166,3.378 2.4106,0.103 4.239,0.329 4.065,0.5 -0.4622,0.448 -4.3195,2.343 -5.5028,2.702 -0.6422,0.194 0.5514,0.316 3.2955,0.338 4.8593,0.04 9.5459,-0.667 13.6284,-2.047 1.5257,-0.517 2.7734,-0.792 2.7734,-0.612 0,0.569 -7.4585,5.32 -10.8609,6.919 l -3.2649,1.534 3.5969,0.02 c 4.2933,0.03 13.0946,-0.897 18.4629,-1.935 2.1283,-0.413 4.0825,-0.75 4.3415,-0.75 1.7889,0 -3.7008,4.4 -9.4231,7.563 -2.731,1.509 -3.5413,2.111 -2.8406,2.111 1.5578,0 9.8545,-1.079 14.5017,-1.889 2.3418,-0.406 4.3195,-0.68 4.397,-0.608 0.2662,0.25 -2.083,2.2 -4.0094,3.331 l -1.9353,1.135 3.676,-0.231 c 2.0229,-0.132 5.9402,-0.39 8.7077,-0.582 8.6317,-0.603 13.7397,-0.861 13.7397,-0.694 0,0.09 -3.047,2.228 -6.7696,4.754 -3.7227,2.528 -6.6907,4.673 -6.5941,4.77 0.1023,0.102 1.8503,-0.03 3.8996,-0.294 2.0478,-0.257 3.8164,-0.376 3.929,-0.263 0.2721,0.273 -5.6112,4.076 -8.7853,5.68 -1.3823,0.699 -4.0591,1.825 -5.9476,2.502 l -3.4315,1.233 2.077,0.25 c 1.1425,0.132 4.9178,0.251 8.3904,0.253 4.4921,0 6.2357,0.131 6.0485,0.43 -0.1463,0.234 -3.2093,1.874 -6.8091,3.645 -3.6013,1.771 -6.4011,3.31 -6.2225,3.419 0.1784,0.117 3.275,0.403 6.8836,0.648 3.6072,0.246 6.6219,0.509 6.6994,0.586 0.2151,0.209 -8.9929,4.552 -12.7186,5.998 l -3.2897,1.279 -9.4816,-0.09 c -9.5532,-0.09 -18.3282,0.386 -35.0255,1.894 -4.6838,0.423 -10.6913,0.956 -13.3521,1.185 -2.6607,0.229 -7.4512,0.752 -10.6429,1.16 -3.1932,0.408 -6.0675,0.728 -6.3864,0.713 -0.3188,-0.02 -2.004,-1.5 -3.7447,-3.297 z m 4.5654,-22.373 c 6.5194,-2.267 11.4971,-7.277 13.2729,-13.362 0.768,-2.633 0.7899,-8.037 0.044,-10.845 -1.6076,-6.041 -6.0398,-11.538 -11.5295,-14.302 -7.4995,-3.774 -14.9961,-3.434 -21.6472,0.985 -8.5117,5.654 -11.7239,18.084 -6.9817,27.009 0.5733,1.081 2.3535,3.29 3.9538,4.91 2.2951,2.321 3.6071,3.279 6.2006,4.527 1.8094,0.87 4.16,1.758 5.2249,1.971 3.1245,0.63 8.2294,0.232 11.4636,-0.893 z m -13.0478,-2.95 c -3.5399,-0.703 -8.2616,-3.638 -10.7659,-6.694 -8.3377,-10.175 -1.5139,-25.712 12.2081,-27.801 3.7125,-0.566 6.3981,-0.09 10.2715,1.808 8.0934,3.973 11.9068,14.924 8.0934,23.252 -1.1878,2.595 -4.6135,6.263 -7.1251,7.631 -3.6086,1.963 -8.4225,2.648 -12.682,1.804 z m 10.9618,-20.874 c 5.1562,-2.34 3.7344,-9.591 -2.0961,-10.694 -3.8616,-0.73 -7.2436,3.402 -5.9622,7.284 0.7578,2.295 3.1552,4.049 5.6462,4.129 0.4257,0.02 1.5111,-0.309 2.4121,-0.719 z m -97.8112,47.204 c 0.8513,-0.668 3.0952,-1.092 3.0952,-0.587 0,0.289 -2.7222,1.361 -3.4331,1.351 -0.471,0 -0.3847,-0.2 0.3379,-0.764 z m -24.425,-1.018 c -7.9266,-2.01 -29.9733,-5.663 -42.7241,-7.08 -3.8309,-0.425 -12.1832,-1.144 -18.5608,-1.598 l -11.5937,-0.825 -8.9184,-3.028 c -9.0984,-3.09 -15.5228,-5.607 -15.9075,-6.23 -0.117,-0.202 3.2517,-0.348 8.0246,-0.348 h 8.2397 l -3.9494,-2.225 c -3.8792,-2.185 -8.6141,-5.599 -8.6141,-6.212 0,-0.171 1.0019,-0.181 2.2248,-0.02 4.3327,0.561 20.4156,0.867 21.2157,0.404 0.7271,-0.423 0.7256,-0.435 -0.058,-0.447 -1.9396,-0.03 -11.43,-4.594 -13.7133,-6.596 l -1.3501,-1.186 3.6759,0.267 c 7.9281,0.573 20.7433,0.09 25.544,-0.973 1.3428,-0.295 1.3311,-0.304 -1.5446,-1.179 -1.5945,-0.486 -4.7291,-1.689 -6.9657,-2.677 l -4.0678,-1.793 7.9339,-0.234 c 8.0056,-0.235 16.2541,-0.996 16.2541,-1.499 0,-0.15 -0.9142,-0.763 -2.0318,-1.36 -2.3375,-1.251 -8.4181,-5.132 -8.4181,-5.372 0,-0.167 0.5704,-0.04 5.2249,1.138 3.6935,0.937 10.0608,0.945 13.1428,0.02 5.7223,-1.721 9.3865,-4.326 17.2385,-12.256 6.9321,-7 11.4476,-10.621 15.6749,-12.574 3.2912,-1.519 7.4645,-2.499 10.6503,-2.499 2.8114,0 7.6809,1.511 9.6132,2.983 l 1.3004,0.992 -0.2867,-0.923 c -0.7475,-2.407 -3.9787,-8.189 -6.6497,-11.905 l -0.6597,-0.919 1.3369,0.268 c 2.5174,0.503 6.1582,2.574 8.5835,4.883 1.3296,1.264 2.4589,2.298 2.5101,2.298 0.058,0 -0.088,-0.479 -0.3189,-1.064 -0.2267,-0.585 -0.4696,-1.326 -0.5412,-1.644 -0.073,-0.321 -0.4008,-1.365 -0.7314,-2.323 l -0.6011,-1.741 2.0229,2.188 c 5.1942,5.619 8.3655,13.986 10.8112,28.522 0.7782,4.629 0.8879,6.614 0.8879,16.048 v 10.765 l -1.7626,1.619 c -0.9698,0.891 -4.3517,3.884 -7.5142,6.652 -3.1639,2.766 -9.268,8.514 -13.567,12.771 l -7.8169,7.741 z m 8.2938,-20.525 c 5.3215,-1.553 11.1257,-6.33 13.3373,-10.979 1.5871,-3.334 1.9981,-5.275 2.0099,-9.486 0.03,-12.356 -8.4196,-21.465 -19.9227,-21.465 -5.9241,0 -10.823,2.138 -15.5257,6.773 -3.4315,3.384 -5.4458,6.896 -6.3571,11.087 -0.7021,3.23 -0.3028,9.63 0.7783,12.453 2.3681,6.185 8.7486,11.204 15.6045,12.276 2.6052,0.408 7.5229,0.09 10.0755,-0.659 z m -9.6117,-3.536 c -3.0046,-1.039 -5.323,-2.564 -7.4615,-4.904 -6.5371,-7.151 -5.9915,-17.657 1.2886,-24.827 4.9807,-4.904 11.0014,-6.249 17.8631,-3.986 5.5775,1.839 9.2987,5.646 11.0043,11.263 1.2287,4.044 0.945,9.266 -0.689,12.7 -2.2321,4.686 -6.2356,8.125 -11.2734,9.681 -3.1697,0.979 -8.0144,1.012 -10.7321,0.07 z m 15.606,-21.374 c 2.2746,-1.387 3.0265,-4.565 1.6237,-6.863 -1.1337,-1.861 -2.9211,-2.8 -5.3288,-2.802 -1.7817,0 -2.219,0.165 -3.4828,1.324 -1.3633,1.248 -1.4467,1.459 -1.4467,3.651 0,2.053 0.1316,2.47 1.1614,3.553 0.6392,0.675 1.5096,1.372 1.9352,1.549 1.454,0.606 4.204,0.401 5.538,-0.412 z m 4.7379,45.317 c -0.4505,-0.289 -0.3628,-0.45 0.4548,-0.824 1.0781,-0.49 3.3702,-0.168 2.7749,0.391 -0.5763,0.542 -2.6315,0.817 -3.2297,0.433 z m 77.1879,-0.408 c 0.4067,-0.658 4.4819,-1.679 4.9265,-1.235 0.2706,0.271 -0.2545,0.591 -1.6558,1.007 -2.3448,0.696 -3.616,0.784 -3.2707,0.228 z m -82.9482,-0.339 c -0.4125,-0.265 -0.3877,-0.382 0.1316,-0.58 1.0064,-0.386 3.986,-0.29 3.2912,0.103 -0.9844,0.56 -2.8758,0.822 -3.4185,0.473 z m 90.572,-2.018 c 0.2311,-0.693 2.7427,-1.285 4.0533,-0.956 1.5096,0.379 0.648,0.918 -1.9601,1.225 -1.8445,0.215 -2.238,0.166 -2.0932,-0.269 z m -214.3383,-1.076 c -3.907,-1.359 -8.7312,-3.927 -14.2706,-7.596 -5.1416,-3.406 -8.0027,-5.856 -7.1602,-6.127 0.3189,-0.103 2.5832,-0.65 5.0318,-1.213 2.4473,-0.565 5.0597,-1.308 5.8042,-1.653 l 1.3546,-0.627 -1.9353,-0.287 c -1.0634,-0.158 -2.8056,-0.308 -3.8689,-0.334 -2.7003,-0.06 -1.789,-0.483 4.6779,-2.158 6.7593,-1.751 8.9271,-2.444 16.5524,-5.291 3.3746,-1.262 6.2152,-2.216 6.3104,-2.12 0.4139,0.414 -6.6336,5.08 -10.8039,7.154 -2.5013,1.244 -4.4322,2.379 -4.2888,2.522 0.1463,0.146 1.3091,0.259 2.5934,0.259 1.4058,0 2.1883,0.131 1.9674,0.35 -0.9347,0.89 -12.4451,3.907 -14.9054,3.907 -2.1502,0 -1.7831,0.305 6.2167,5.18 2.4487,1.493 7.0329,4.048 10.1895,5.679 5.4107,2.795 5.6667,2.98 4.4994,3.214 -2.4252,0.484 -4.8621,0.222 -7.9646,-0.859 z m 334.8691,-2.27 c 0.4534,-0.379 2.7177,-2.156 5.0318,-3.953 5.1913,-4.027 8.8643,-7.201 13.8844,-12 l 3.869,-3.699 h -5.418 c -4.223,0 -6.3571,-0.201 -9.6747,-0.91 -2.3418,-0.5 -4.6544,-1.118 -5.1386,-1.371 -0.8382,-0.438 -0.7797,-0.497 1.16,-1.182 2.9357,-1.034 6.0163,-2.621 11.525,-5.938 2.6607,-1.602 5.5058,-3.213 6.3234,-3.58 l 1.4862,-0.665 -3.0279,-0.673 c -3.7753,-0.842 -21.8023,-7.024 -22.4956,-7.716 -0.1024,-0.103 9.8223,-1.768 10.5011,-1.768 0.1316,0 0.2457,-0.146 0.2457,-0.323 0,-0.178 -1.7728,-0.799 -3.9407,-1.38 -5.2922,-1.42 -15.037,-4.912 -20.0426,-7.184 -5.9665,-2.708 -21.087,-9.736 -21.2084,-9.859 -0.058,-0.06 2.4662,-0.03 5.6111,0.06 5.0231,0.146 5.6331,0.09 5.0275,-0.398 -0.3803,-0.307 -6.0397,-2.693 -12.5782,-5.302 -6.5385,-2.609 -13.194,-5.37 -14.7914,-6.135 l -2.9021,-1.391 2.4721,-0.117 c 1.3604,-0.07 3.2298,0.04 4.1542,0.237 2.1795,0.465 1.8972,0.06 -1.4291,-2.078 -8.3186,-5.332 -16.1736,-7.89 -24.3445,-7.929 -3.5253,-0.02 -2.4721,-0.5 4.7334,-2.175 3.2444,-0.753 5.9578,-1.426 6.028,-1.495 0.2676,-0.256 -10.7234,-3.636 -14.2545,-4.383 -2.023,-0.428 -6.1758,-1.09 -9.2299,-1.472 -3.5531,-0.445 -5.225,-0.789 -4.6443,-0.957 0.5002,-0.146 3.0849,-0.867 5.7456,-1.609 l 4.8389,-1.347 -2.6754,-0.293 c -3.4448,-0.377 -10.1251,0 -13.5538,0.754 -1.4745,0.326 -2.7398,0.537 -2.81,0.466 -0.073,-0.07 1.5944,-1.014 3.6993,-2.1 2.1049,-1.084 4.4146,-2.346 5.1328,-2.804 l 1.3048,-0.832 -4.2128,0.244 c -6.4873,0.376 -17.2955,2.484 -22.0071,4.293 -0.3729,0.146 -0.6772,0.103 -0.6772,-0.09 0,-0.775 4.4146,-5.639 7.3445,-8.09 1.7085,-1.431 3.0513,-2.66 2.9811,-2.729 -0.073,-0.07 -1.8548,0.413 -3.9684,1.072 -6.6263,2.066 -11.8791,5.072 -18.7423,10.725 -1.8094,1.489 -3.3336,2.665 -3.3863,2.613 -0.1609,-0.159 2.9972,-11.434 3.7768,-13.486 0.7168,-1.887 0.7168,-1.904 -0.015,-1.238 -1.4276,1.292 -5.7559,8.141 -7.6955,12.178 l -1.9528,4.063 -0.03,-3.483 -0.03,-3.484 -1.3471,3.871 c -0.7417,2.128 -1.6954,5.433 -2.1225,7.342 -0.4257,1.911 -0.8675,3.565 -0.9816,3.677 -0.1169,0.118 -0.1477,-2.356 -0.073,-5.485 0.1025,-4.447 0.03,-5.504 -0.3101,-4.838 -1.1073,2.13 -2.5642,7.953 -3.4082,13.624 -0.5061,3.405 -0.9361,6.106 -0.9537,5.999 -0.015,-0.103 -0.294,-1.675 -0.6129,-3.483 -0.3188,-1.809 -0.5953,-4.248 -0.6143,-5.42 l -0.03,-2.128 -0.727,2.709 c -1.0723,4.005 -2.2249,13.729 -2.712,22.886 -0.4169,7.863 -0.2691,17.55 0.4213,27.611 0.1814,2.657 0.2794,4.882 0.215,4.946 -0.058,0.06 -1.7509,-0.15 -3.7505,-0.474 -4.5959,-0.745 -10.9647,-0.748 -14.4695,0 -1.4906,0.316 -2.9007,0.575 -3.1347,0.575 -0.2926,0 -0.4987,-3.174 -0.6582,-10.161 -0.4066,-17.696 -2.2439,-31.643 -5.775,-43.829 -1.4057,-4.849 -1.7406,-4.671 -1.8167,0.967 -0.073,5.145 -0.5354,4.896 -1.9557,-1.048 -1.4276,-5.976 -3.4726,-12.159 -4.8958,-14.805 l -0.945,-1.756 0.2443,7.16 c 0.1316,3.937 0.158,7.072 0.058,6.965 -0.1023,-0.102 -0.7196,-1.693 -1.3647,-3.527 -1.8021,-5.126 -8.4957,-17.955 -9.7844,-18.75 -0.1667,-0.103 0.058,1.079 0.5062,2.628 3.4112,11.882 3.6642,13.081 2.3931,11.328 -2.1869,-3.014 -5.2206,-6.279 -9.0296,-9.718 -2.4355,-2.2 -4.4716,-3.958 -4.5243,-3.905 -0.058,0.06 1.4115,3.089 3.2517,6.747 1.8416,3.658 3.2605,6.738 3.1522,6.845 -0.1024,0.103 -0.9698,-0.331 -1.9191,-0.973 -2.6388,-1.787 -7.8814,-4.351 -12.173,-5.956 -3.9977,-1.494 -12.1043,-3.512 -12.5022,-3.114 -0.1316,0.117 0.7241,1.223 1.8855,2.441 1.1629,1.219 2.6842,2.841 3.3805,3.606 l 1.2681,1.388 -2.434,-0.348 c -3.9684,-0.567 -13.7074,-0.534 -17.8192,0.06 -2.0756,0.301 -3.771,0.647 -3.7696,0.77 0,0.116 2.1342,1.439 4.7379,2.929 l 4.7335,2.71 -4.6954,0.26 c -8.0788,0.447 -23.5986,2.917 -22.876,3.639 0.088,0.09 1.5344,0.34 3.2224,0.566 3.7579,0.508 9.1291,1.897 8.8804,2.299 -0.1024,0.161 -1.2229,0.411 -2.4969,0.555 -5.3976,0.612 -13.9825,3.15 -20.4595,6.05 -3.3819,1.515 -3.123,1.903 1.2784,1.912 h 3.0952 l -2.4633,1.165 c -2.9883,1.415 -7.9149,4.593 -12.2959,7.936 l -3.2502,2.481 2.6183,-0.197 2.6199,-0.2 -1.3546,0.768 c -0.7445,0.423 -4.0942,2.936 -7.4439,5.585 -6.6555,5.263 -10.9151,8.27 -16.5408,11.677 -4.6925,2.844 -13.9531,7.647 -16.4589,8.539 -3.515,1.25 -3.4155,1.323 2.9021,2.147 5.9315,0.772 5.9227,0.767 3.4565,2.151 -7.6823,4.317 -18.362,9.422 -19.7076,9.422 -0.3701,0 -0.3585,-0.155 0.043,-0.649 0.724,-0.885 9.6351,-7.987 11.1315,-8.871 0.6612,-0.39 1.2039,-0.847 1.2039,-1.013 0,-0.167 -1.1761,-0.32 -2.6125,-0.335 -1.4379,-0.02 -5.0509,-0.237 -8.0305,-0.489 l -5.4195,-0.455 9.0954,-4.692 c 9.1744,-4.734 16.3316,-8.705 16.1005,-8.936 -0.073,-0.07 -1.3589,0.318 -2.867,0.862 -3.6364,1.313 -8.424,2.521 -9.9087,2.502 l -1.1965,-0.02 1.1614,-0.614 c 6.5663,-3.47 14.0088,-8.895 20.1246,-14.669 2.9664,-2.801 2.9064,-2.807 -1.3838,-0.132 -3.4769,2.166 -6.9451,3.947 -9.7434,5.009 l -2.0303,0.77 1.3545,-1.195 c 0.7446,-0.656 2.1371,-1.736 3.0952,-2.398 5.0757,-3.511 14.6743,-11.885 18.6076,-16.236 2.9051,-3.213 5.5117,-6.674 7.5303,-9.998 l 1.3926,-2.294 -4.5755,-4.551 c -11.7898,-11.722 -18.087,-22.913 -21.2055,-37.678 -4.1893,-19.844 0.4358,-41.656 10.1558,-47.893 4.2888,-2.752 10.9238,-4.312 18.3517,-4.315 13.3652,0 25.8278,4.783 38.8258,14.919 3.0528,2.379 9.5269,8.79 13.074,12.945 l 1.8168,2.129 -0.6173,-2.129 c -0.3394,-1.172 -0.8601,-2.599 -1.1555,-3.175 -0.297,-0.574 -0.5398,-1.263 -0.5398,-1.529 0,-1.116 7.5463,7.246 12.3968,13.738 2.649,3.545 2.8714,3.747 3.1932,2.904 0.1902,-0.501 0.3744,-2.866 0.4096,-5.259 0.03,-2.6 0.2179,-4.352 0.449,-4.352 0.2136,0 3.0659,0.525 6.3411,1.171 3.2735,0.645 6.0236,1.103 6.1084,1.016 0.088,-0.09 -0.7182,-0.82 -1.7846,-1.634 -1.0663,-0.813 -1.8621,-1.556 -1.7669,-1.651 0.1023,-0.103 1.7011,0.374 3.5705,1.044 1.8694,0.669 4.8315,1.628 6.5838,2.133 l 3.183,0.915 -0.8703,-1.111 c -0.4784,-0.611 -1.7978,-1.81 -2.9328,-2.661 -1.1337,-0.853 -1.8153,-1.549 -1.514,-1.549 1.4657,0 12.1789,4.085 15.3106,5.839 l 2.0406,1.143 -0.588,-1.405 c -0.3219,-0.772 -1.2274,-2.277 -2.0114,-3.345 -1.3442,-1.831 -1.3721,-1.925 -0.4856,-1.659 1.3633,0.41 6.0792,3.383 9.2432,5.825 1.5051,1.164 2.845,2.115 2.9781,2.115 0.3306,0 -0.1873,-4.808 -0.6494,-6.025 -0.6319,-1.659 0.2354,-0.714 2.2101,2.409 l 1.8636,2.949 0.117,-1.635 c 0.073,-0.901 -0.043,-2.405 -0.2428,-3.344 -0.2004,-0.938 -0.2355,-1.707 -0.073,-1.707 1.0736,0 7.1733,8.229 8.1957,11.055 0.2648,0.732 0.5998,1.33 0.746,1.33 0.2897,0 0.9874,-3.477 1.4394,-7.16 l 0.2838,-2.321 1.1204,3.772 c 0.6173,2.076 1.1907,3.774 1.2756,3.774 0.088,0 0.6187,-0.566 1.1863,-1.258 3.1361,-3.819 16.197,-16.036 16.6563,-15.578 0.1799,0.181 -0.4272,1.202 -5.2322,8.791 -1.9821,3.131 -3.6043,5.805 -3.6043,5.942 0,0.131 0.9245,-0.599 2.0538,-1.631 4.0737,-3.722 9.4259,-7.845 12.6512,-9.745 1.8095,-1.067 3.3468,-1.882 3.4185,-1.809 0.073,0.07 -0.9479,1.405 -2.2614,2.968 -2.3316,2.77 -3.6979,4.876 -3.3746,5.199 0.088,0.09 1.6559,-0.538 3.4828,-1.394 3.7198,-1.744 10.8903,-4.168 13.2497,-4.48 l 1.5475,-0.205 -1.3457,1.086 c -0.7416,0.596 -1.9601,1.642 -2.7105,2.324 l -1.3618,1.238 2.9548,-0.905 c 3.3351,-1.021 10.0973,-2.319 10.8243,-2.076 0.2633,0.09 -0.5017,0.926 -1.6997,1.863 -2.3477,1.833 -2.6153,2.359 -0.6977,1.367 0.6582,-0.34 3.5924,-1.205 6.518,-1.92 2.927,-0.715 5.6257,-1.426 5.9988,-1.579 0.7123,-0.292 0.9113,0.166 0.3437,0.791 -0.7051,0.778 -3.0938,5.593 -2.7749,5.593 0.5105,0 3.9992,-4.008 7.0739,-8.127 3.4623,-4.638 4.9397,-6.356 4.9222,-5.723 0,0.274 -0.256,1.629 -0.5515,3.009 -0.2969,1.383 -0.4988,2.553 -0.4491,2.601 0.043,0.04 1.9806,-1.926 4.2947,-4.39 11.1623,-11.893 25.0057,-19.735 40.6469,-23.024 6.0397,-1.269 15.8372,-1.282 20.8501,-0.03 9.1159,2.281 14.3364,7.757 17.6056,18.462 4.6428,15.204 3.6788,32.667 -2.687,48.644 -3.3351,8.372 -6.7638,14.093 -12.7698,21.309 l -1.2068,1.449 2.6491,2.764 2.6489,2.761 -1.3544,-0.221 c -0.7446,-0.116 -2.1284,-0.339 -3.0747,-0.486 l -1.7188,-0.266 1.5783,1.887 c 5.9739,7.135 18.7525,17.062 28.7592,22.341 4.1424,2.185 11.7824,5.309 14.9083,6.097 0.9538,0.239 1.7334,0.615 1.7334,0.836 0,0.615 -10.7571,0.02 -15.2872,-0.846 -2.1283,-0.406 -3.9231,-0.688 -3.986,-0.624 -0.2517,0.248 12.4231,5.425 17.7256,7.241 l 5.6111,1.922 -3.0966,-0.211 c -8.6712,-0.589 -11.2047,-0.705 -11.0174,-0.5 0.1857,0.203 9.1538,3.698 14.8878,5.802 1.277,0.467 2.3946,0.893 2.4838,0.947 0.4461,0.268 -0.6217,0.512 -5.4005,1.237 -8.3099,1.261 -7.9969,1.1 -4.6238,2.401 5.3405,2.058 12.1438,4.132 17.1186,5.216 2.7134,0.591 4.8022,1.198 4.6443,1.349 -0.6144,0.579 -10.6167,6.048 -15.9206,8.705 l -5.5702,2.789 2.6475,0.282 c 3.3951,0.365 8.7108,-0.03 13.1341,-0.959 1.9162,-0.404 3.5282,-0.69 3.5823,-0.635 0.058,0.06 -1.6164,2.007 -3.7139,4.339 -10.2349,11.373 -20.3133,18.689 -28.1185,20.417 -1.1556,0.256 -1.1585,0.254 -0.3393,-0.43 z m -289.5385,-90.186 c 0.1522,-0.373 0.8733,-2.42 1.6032,-4.548 1.2551,-3.662 1.2887,-3.896 0.6348,-4.371 -6.9905,-5.059 -10.0227,-7.937 -14.1506,-13.432 -3.2093,-4.271 -7.9691,-13.745 -9.3338,-18.577 -1.3794,-4.883 -1.808,-8.066 -1.8167,-13.49 -0.015,-10.996 3.3541,-18.12 10.0739,-21.28 2.1649,-1.016 3.0366,-1.193 6.635,-1.341 5.3127,-0.219 8.9608,0.561 13.4661,2.876 9.1363,4.696 16.8626,12.547 26.23,26.655 4.8476,7.301 5.4649,8.152 5.7238,7.894 0.1463,-0.147 -1.4686,-4.371 -2.7456,-7.216 -0.117,-0.266 -0.015,-0.483 0.2297,-0.483 0.5382,0 6.8896,3.781 7.2025,4.288 0.1171,0.195 0.3789,0.356 0.5734,0.356 0.6452,0 -0.1023,-2.454 -2.2233,-7.352 -2.8275,-6.512 -2.8641,-6.669 -1.2302,-5.233 0.7212,0.633 2.3316,2.114 3.5794,3.29 1.4759,1.391 2.1897,1.864 2.0493,1.361 -0.6772,-2.41 -1.0898,-4.452 -0.9699,-4.789 0.073,-0.212 2.2015,1.444 4.7248,3.678 2.5217,2.235 4.6647,3.984 4.7612,3.888 0.1024,-0.103 -0.5164,-1.494 -1.3604,-3.106 -6.7228,-12.838 -18.3531,-24.456 -31.0308,-30.992 -8.7252,-4.5 -16.2687,-6.452 -24.9486,-6.458 -9.1057,0 -16.102,2.182 -19.5584,6.118 -4.1089,4.681 -7.0944,16.242 -7.0754,27.403 0.03,14.543 4.4819,28.293 12.8239,39.553 2.4385,3.292 14.7358,15.985 15.4862,15.985 0.2033,0 0.4944,-0.305 0.6465,-0.677 z m 256.7875,-7.099 c 9.145,-11.253 15.2038,-24.384 17.2385,-37.362 0.9054,-5.77 0.6128,-17.989 -0.5603,-23.409 -2.4969,-11.539 -6.7798,-18.638 -12.5401,-20.794 -6.1421,-2.297 -15.4262,-2.787 -23.2958,-1.228 -14.0541,2.782 -27.1911,9.903 -37.227,20.177 -3.7198,3.809 -11.3978,12.802 -11.1447,13.053 0.073,0.09 1.6602,-1.019 3.5091,-2.446 3.183,-2.458 3.3483,-2.537 3.1259,-1.496 -0.4914,2.294 -1.4467,8.357 -1.3354,8.468 0.058,0.06 1.8576,-1.377 3.9845,-3.206 6.2064,-5.33 8.2879,-6.644 6.4565,-4.069 -1.2594,1.767 -6.2649,12.114 -6.2649,12.949 0,0.435 0.2077,0.694 0.4841,0.604 0.2663,-0.09 3.5253,-3.788 7.2436,-8.226 11.4358,-13.649 20.9392,-21.005 31.8089,-24.618 5.0129,-1.668 11.3437,-1.999 15.2844,-0.802 8.2601,2.509 12.5051,10.211 12.5138,22.708 0,11.114 -3.3351,21.845 -9.7361,31.244 -2.3082,3.39 -9.6687,11.329 -11.3494,12.242 -0.7359,0.401 -0.708,0.473 0.5807,1.475 0.7445,0.578 2.921,2.583 4.8373,4.454 1.9162,1.872 3.5705,3.398 3.6773,3.39 0.1025,-0.02 1.3253,-1.407 2.7091,-3.108 z m -223.7732,-26.805 c -1.9513,-1.724 -5.3317,-3.377 -7.3503,-3.591 -1.533,-0.164 -1.3267,0 2.5247,1.925 2.3067,1.155 4.3883,2.296 4.6253,2.532 0.2369,0.237 0.7006,0.424 1.0297,0.415 0.3817,-0.02 0.088,-0.477 -0.8294,-1.281 z m 189.6969,-3.127 c 4.8754,-1.425 5.339,-1.608 4.9777,-1.969 -0.6129,-0.613 -9.7185,2.058 -10.7512,3.153 -0.7036,0.75 -1.157,0.842 5.7735,-1.184 z m -19.8861,-3.622 c 4.8607,-3.36 8.7399,-6.342 8.5278,-6.555 -0.3408,-0.341 -4.1322,1.692 -6.4697,3.469 -5.8891,4.475 -7.4469,6.811 -2.0581,3.086 z" id="path161" /></g></svg>